<?xml version="1.0" encoding="utf-8"?>
<!-- Generator: Adobe Illustrator 17.1.0, SVG Export Plug-In . SVG Version: 6.00 Build 0)  -->
<!DOCTYPE svg PUBLIC "-//W3C//DTD SVG 1.1//EN" "http://www.w3.org/Graphics/SVG/1.1/DTD/svg11.dtd">
<svg version="1.1" id="Layer_1" xmlns="http://www.w3.org/2000/svg" xmlns:xlink="http://www.w3.org/1999/xlink" x="0px" y="0px"
	 viewBox="0 0 17.8 17.8" enable-background="new 0 0 17.8 17.8" xml:space="preserve">
<linearGradient id="SVGID_1_" gradientUnits="userSpaceOnUse" x1="8.591875e-02" y1="8.8774" x2="17.666" y2="8.8774">
	<stop  offset="0.6069" style="stop-color:#00AEEF"/>
	<stop  offset="1" style="stop-color:#1C75BC"/>
</linearGradient>
<path fill="url(#SVGID_1_)" d="M8.9,0.1C4,0.1,0.1,4,0.1,8.9c0,4.9,3.9,8.8,8.8,8.8c4.9,0,8.8-3.9,8.8-8.8C17.7,4,13.7,0.1,8.9,0.1z
	 M14.3,9.7c-1.1,1.1-3.2,3.2-3.9,3.9c-0.5,0.5-1.2,0.5-1.7,0c-0.5-0.5-0.5-1.2,0-1.7c0.2-0.2,1-1,1.8-1.8c0,0-5.1,0-6.2,0
	c-0.7,0-1.2-0.5-1.2-1.2c0-0.7,0.5-1.2,1.2-1.2c1.1,0,6.2,0,6.2,0C9.7,6.8,8.9,6,8.7,5.9c-0.5-0.5-0.5-1.2,0-1.7
	c0.5-0.5,1.2-0.5,1.7,0c0.7,0.7,2.8,2.8,3.9,3.9c0.2,0.2,0.4,0.5,0.4,0.8C14.6,9.2,14.5,9.5,14.3,9.7z"/>
</svg>
