<?xml version="1.0" encoding="utf-8"?>
<!-- Generator: Adobe Illustrator 17.1.0, SVG Export Plug-In . SVG Version: 6.00 Build 0)  -->
<!DOCTYPE svg PUBLIC "-//W3C//DTD SVG 1.1//EN" "http://www.w3.org/Graphics/SVG/1.1/DTD/svg11.dtd">
<svg version="1.1" id="Layer_1" xmlns="http://www.w3.org/2000/svg" xmlns:xlink="http://www.w3.org/1999/xlink" x="0px" y="0px"
	 viewBox="0 0 1202.7 231.1" enable-background="new 0 0 1202.7 231.1" xml:space="preserve">
<g>
	<defs>
		<rect id="SVGID_1_" x="0" y="0" width="1202.7" height="498"/>
	</defs>
	<clipPath id="SVGID_2_">
		<use xlink:href="#SVGID_1_"  overflow="visible"/>
	</clipPath>
	
		<radialGradient id="SVGID_3_" cx="840.9285" cy="-3395.8613" r="798.5546" gradientTransform="matrix(-3.000000e-04 1.0093 -1.2192 -8.414067e-03 -3645.3608 -373.9371)" gradientUnits="userSpaceOnUse">
		<stop  offset="1.871410e-02" style="stop-color:#FBB040"/>
		<stop  offset="0.1916" style="stop-color:#FBAD3F"/>
		<stop  offset="0.3561" style="stop-color:#FAA53C"/>
		<stop  offset="0.5173" style="stop-color:#F89738"/>
		<stop  offset="0.6764" style="stop-color:#F58432"/>
		<stop  offset="0.8326" style="stop-color:#F26A2C"/>
		<stop  offset="0.9061" style="stop-color:#F15A29"/>
	</radialGradient>
	<path clip-path="url(#SVGID_2_)" fill="url(#SVGID_3_)" d="M-74.9,368.7C20.1,93.8,213.8,35.7,404.9,44.2l945.9,7.8L1275.7-78
		c-231.1-343-486.4-308.5-500.2-307.9l-486.9,1.2c-549.8-3.2-684,367.2-703.9,425.6c1.3-0.8-114.9,331.3-114.9,331.3
		c-10.5,35.6-11,67.3-11,97.3c0,48.4,13.8,79.4,24.5,96.1L-269.5,957L-74.9,368.7z"/>
	
		<radialGradient id="SVGID_4_" cx="790.0197" cy="-3249.4951" r="841.1339" gradientTransform="matrix(7.560000e-02 1.0069 -0.9969 6.990000e-02 -2918.9761 -317.8589)" gradientUnits="userSpaceOnUse">
		<stop  offset="0.6069" style="stop-color:#00AEEF"/>
		<stop  offset="1" style="stop-color:#1C75BC"/>
	</radialGradient>
	<path clip-path="url(#SVGID_2_)" fill="url(#SVGID_4_)" d="M-87.9,421.7C-13.8,140.2,173,39.2,364,33.1l943.2-64.8l-82.7-95.9
		C968.4-452.1,982.2-522.2,968.5-520.5L217.7-357.9c-548.1,39-654,418.8-669.4,478.6c1.2-0.9-89.6,339.4-89.6,339.4
		c-7.8,36.3-5.9,68-3.6,97.9c3.6,48.3,19.8,78.2,31.6,94l275.8,371.5L-87.9,421.7z"/>
</g>
</svg>
