<?xml version="1.0" encoding="utf-8"?>
<!-- Generator: Adobe Illustrator 17.1.0, SVG Export Plug-In . SVG Version: 6.00 Build 0)  -->
<!DOCTYPE svg PUBLIC "-//W3C//DTD SVG 1.1//EN" "http://www.w3.org/Graphics/SVG/1.1/DTD/svg11.dtd">
<svg version="1.1" id="Layer_1" xmlns="http://www.w3.org/2000/svg" xmlns:xlink="http://www.w3.org/1999/xlink" x="0px" y="0px"
	 viewBox="0 605.9 1500 279.7" enable-background="new 0 605.9 1500 279.7" xml:space="preserve">
<g>
	<g>
		<defs>
			<rect id="SVGID_1_" x="0" y="605.9" width="1500" height="621.1"/>
		</defs>
		<clipPath id="SVGID_2_">
			<use xlink:href="#SVGID_1_"  overflow="visible"/>
		</clipPath>
		
			<radialGradient id="SVGID_3_" cx="840.9285" cy="4895.8613" r="798.5546" gradientTransform="matrix(-3.741582e-04 1.2588 1.5206 1.049397e-02 -6827.3394 123.7737)" gradientUnits="userSpaceOnUse">
			<stop  offset="1.871410e-02" style="stop-color:#FBB040"/>
			<stop  offset="0.1916" style="stop-color:#FBAD3F"/>
			<stop  offset="0.3561" style="stop-color:#FAA53C"/>
			<stop  offset="0.5173" style="stop-color:#F89738"/>
			<stop  offset="0.6764" style="stop-color:#F58432"/>
			<stop  offset="0.8326" style="stop-color:#F26A2C"/>
			<stop  offset="0.9061" style="stop-color:#F15A29"/>
		</radialGradient>
		<path clip-path="url(#SVGID_2_)" fill="url(#SVGID_3_)" d="M-93.4,1065.7C25.1,722.9,266.7,650.4,505,661l1179.7,9.7L1591,508.6
			c-288.2-427.8-606.6-384.8-623.8-384l-607.3,1.5c-685.7-4-853.1,458-877.9,530.8c1.6-1-143.3,413.2-143.3,413.2
			c-13.1,44.4-13.7,83.9-13.7,121.4c0,60.4,17.2,99,30.6,119.9l308.3,488.2L-93.4,1065.7z"/>
	</g>
	<g>
		<defs>
			<rect id="SVGID_4_" x="0" y="605.9" width="1500" height="621.1"/>
		</defs>
		<clipPath id="SVGID_5_">
			<use xlink:href="#SVGID_4_"  overflow="visible"/>
		</clipPath>
		
			<radialGradient id="SVGID_6_" cx="790.0159" cy="4749.5205" r="841.1147" gradientTransform="matrix(9.428785e-02 1.2558 1.2433 -8.717885e-02 -5505.52 340.2234)" gradientUnits="userSpaceOnUse">
			<stop  offset="0.6069" style="stop-color:#00AEEF"/>
			<stop  offset="1" style="stop-color:#1C75BC"/>
		</radialGradient>
		<path clip-path="url(#SVGID_5_)" fill="url(#SVGID_6_)" d="M-109.6,1131.8C-17.2,780.7,215.8,654.8,454,647.2l1176.4-80.8
			l-103.1-119.6C1207.8,42,1225-45.4,1207.9-43.3L271.5,159.5c-683.6,48.6-815.7,522.3-834.9,596.9c1.5-1.1-111.7,423.3-111.7,423.3
			c-9.7,45.3-7.4,84.8-4.5,122.1c4.5,60.2,24.7,97.5,39.4,117.2l344,463.3L-109.6,1131.8z"/>
	</g>
</g>
</svg>
