<?xml version="1.0" encoding="utf-8"?>
<!-- Generator: Adobe Illustrator 17.1.0, SVG Export Plug-In . SVG Version: 6.00 Build 0)  -->
<!DOCTYPE svg PUBLIC "-//W3C//DTD SVG 1.1//EN" "http://www.w3.org/Graphics/SVG/1.1/DTD/svg11.dtd">
<svg version="1.1" id="Layer_1" xmlns="http://www.w3.org/2000/svg" xmlns:xlink="http://www.w3.org/1999/xlink" x="0px" y="0px"
	 viewBox="0 565.2 1498 280.8" enable-background="new 0 565.2 1498 280.8" xml:space="preserve">
<g>
	<g>
		<defs>
			<polyline id="SVGID_1_" points="0,565.2 0,1186.6 1498,1186.6 1498,565.2 			"/>
		</defs>
		<clipPath id="SVGID_2_">
			<use xlink:href="#SVGID_1_"  overflow="visible"/>
		</clipPath>
		<rect x="-0.7" y="568.3" clip-path="url(#SVGID_2_)" fill="#F1F2F2" fill-opacity="0" width="1501.1" height="435.6"/>
	</g>
	<g>
		<defs>
			<polyline id="SVGID_3_" points="0,565.2 0,1186.6 1498,1186.6 1498,565.2 			"/>
		</defs>
		<clipPath id="SVGID_4_">
			<use xlink:href="#SVGID_3_"  overflow="visible"/>
		</clipPath>
		
			<radialGradient id="SVGID_5_" cx="862.3386" cy="1983.9662" r="808.8453" gradientTransform="matrix(-9.421797e-02 1.2565 -1.5141 -0.1064 3976.239 288.1516)" gradientUnits="userSpaceOnUse">
			<stop  offset="0.6069" style="stop-color:#00AEEF"/>
			<stop  offset="1" style="stop-color:#1C75BC"/>
		</radialGradient>
		<path clip-path="url(#SVGID_4_)" fill="url(#SVGID_5_)" d="M1607.4,1091.4c-92.2-351.3-325-477.3-562.9-484.9l-1174.8-80.9
			l103.1-119.7C291.8,1,274.5-86.5,291.6-84.4l935.2,203c682.7,48.7,814.5,522.6,833.9,597.3c-1.5-1.1,111.6,423.5,111.6,423.5
			c9.7,45.3,7.4,84.9,4.5,122.2c-4.5,60.3-24.6,97.6-39.3,117.3l-343.6,463.6L1607.4,1091.4z"/>
	</g>
</g>
</svg>
