<?xml version="1.0" encoding="utf-8"?>
<!-- Generator: Adobe Illustrator 17.1.0, SVG Export Plug-In . SVG Version: 6.00 Build 0)  -->
<!DOCTYPE svg PUBLIC "-//W3C//DTD SVG 1.1//EN" "http://www.w3.org/Graphics/SVG/1.1/DTD/svg11.dtd">
<svg version="1.1" id="Layer_1" xmlns="http://www.w3.org/2000/svg" xmlns:xlink="http://www.w3.org/1999/xlink" x="0px" y="0px"
	 viewBox="0 565.2 1498 370.8" enable-background="new 0 565.2 1498 370.8" xml:space="preserve">
<g>
	<g>
		<defs>
			<rect id="SVGID_1_" y="565.2" width="1498" height="621.5"/>
		</defs>
		<clipPath id="SVGID_2_">
			<use xlink:href="#SVGID_1_"  overflow="visible"/>
		</clipPath>
		<rect x="-0.7" y="568.3" clip-path="url(#SVGID_2_)" fill="#F1F2F2" fill-opacity="0" width="1501.1" height="435.6"/>
	</g>
	<g>
		<defs>
			<rect id="SVGID_3_" y="565.2" width="1498" height="621.5"/>
		</defs>
		<clipPath id="SVGID_4_">
			<use xlink:href="#SVGID_3_"  overflow="visible"/>
		</clipPath>
		<g clip-path="url(#SVGID_4_)">
			
				<linearGradient id="SVGID_5_" gradientUnits="userSpaceOnUse" x1="601.1" y1="1510.9155" x2="601.1" y2="1491.1588" gradientTransform="matrix(1.2479 0 0 -1.2479 0 2437.0632)">
				<stop  offset="0.325" style="stop-color:#4B4B4B"/>
				<stop  offset="1" style="stop-color:#FFFFFF;stop-opacity:0"/>
			</linearGradient>
			<rect y="565.7" fill="url(#SVGID_5_)" width="1500.2" height="59.9"/>
		</g>
	</g>
	<g>
		<defs>
			<rect id="SVGID_6_" y="565.2" width="1498" height="621.5"/>
		</defs>
		<clipPath id="SVGID_7_">
			<use xlink:href="#SVGID_6_"  overflow="visible"/>
		</clipPath>
		
			<radialGradient id="SVGID_8_" cx="1026.241" cy="2140.1421" r="798.6233" gradientTransform="matrix(0.152 1.2502 -1.5061 0.1941 3883.3403 -510.8297)" gradientUnits="userSpaceOnUse">
			<stop  offset="1.871410e-02" style="stop-color:#FBB040"/>
			<stop  offset="0.1916" style="stop-color:#FBAD3F"/>
			<stop  offset="0.3561" style="stop-color:#FAA53C"/>
			<stop  offset="0.5173" style="stop-color:#F89738"/>
			<stop  offset="0.6764" style="stop-color:#F58432"/>
			<stop  offset="0.8326" style="stop-color:#F26A2C"/>
			<stop  offset="0.9061" style="stop-color:#F15A29"/>
		</radialGradient>
		<path clip-path="url(#SVGID_7_)" fill="url(#SVGID_8_)" d="M1500,934.8C1341.1,608.6,1092.9,565.7,857.9,605L-310.4,757.1
			l73.3-172.3C-3,125,318,129.3,335.1,128l602.2-71.9c679.4-86.7,900.9,351.9,934.3,421.3c-1.7-0.9,191.8,393.1,191.8,393.1
			c18.3,42.6,23.7,81.7,28.2,118.8c7.2,60-5.2,100.5-15.8,122.7L1829,1634.2L1500,934.8z"/>
	</g>
</g>
<linearGradient id="SVGID_9_" gradientUnits="userSpaceOnUse" x1="601.1248" y1="553.8934" x2="601.1248" y2="573.6501">
	<stop  offset="0" style="stop-color:#000000"/>
	<stop  offset="0.8968" style="stop-color:#000000;stop-opacity:0"/>
</linearGradient>
<rect y="565.2" fill="url(#SVGID_9_)" width="1202.2" height="48"/>
</svg>
