<?xml version="1.0" encoding="utf-8"?>
<!-- Generator: Adobe Illustrator 17.1.0, SVG Export Plug-In . SVG Version: 6.00 Build 0)  -->
<!DOCTYPE svg PUBLIC "-//W3C//DTD SVG 1.1//EN" "http://www.w3.org/Graphics/SVG/1.1/DTD/svg11.dtd">
<svg version="1.1" id="Layer_1" xmlns="http://www.w3.org/2000/svg" xmlns:xlink="http://www.w3.org/1999/xlink" x="0px" y="0px"
	 viewBox="0 579.6 1500 331.5" enable-background="new 0 579.6 1500 331.5" xml:space="preserve">
<g>
	<g enable-background="new    ">
		<path fill="#00AEEF" d="M1136,855.5c0.8-6.2,6.6-11.2,12.7-11.2h7.6c4.8,0.2,9.3,0.3,13.6,2.5c5.6,2.9,7.5,9.5,6.6,15.9
			c-0.9,6.1-3.9,11.8-9.8,15.2c-4.8,2.7-10.3,3-15.5,3h-7.8l-3,20.8h-11.1L1136,855.5z M1144.9,871.2h8.4c5.4,0,11-2.1,11.9-8.5
			c1.1-7.5-2.9-8.5-9.9-8.5h-6.6c-1.4,0-1.6,1.3-1.8,2.7L1144.9,871.2z"/>
		<path fill="#00AEEF" d="M1192.6,848.7c1.6-3.1,4.8-5.1,8.1-5.1c3.5,0,6.6,2.1,7.3,5.1l12.7,53.1h-11.3l-3-13.4h-22.5l-6.9,13.4
			h-11.6L1192.6,848.7z M1188.7,878.7h15.4l-4.7-21.5L1188.7,878.7z"/>
		<path fill="#00AEEF" d="M1273,846.4l-1.5,10.5h-1.3c-3.5-2.1-8.9-3.4-13.3-3.4c-4.8-0.1-9.4,1.5-13.1,5.3
			c-3.6,3.8-5.6,9.4-6.2,14.2c-0.7,4.8-0.3,10.6,2.4,14.4c2.6,3.5,6.9,5.3,11.7,5.2c4.4,0,10.1-1.3,14.2-3.4h1.5l-1.5,10.4
			c-5.4,1.9-10,3-15.5,3c-7.2,0-14-2.4-18.4-7.5c-5.6-6.1-7-14.3-5.8-22.9c1-7.2,4.4-14.9,10.3-20.7c6.2-6,13.8-8.2,21.9-8.2
			C1263.9,843.5,1268.2,844.6,1273,846.4z"/>
		<path fill="#00AEEF" d="M1285.8,901.8h-11.1l8.1-57.5h11.1L1285.8,901.8z"/>
		<path fill="#00AEEF" d="M1320.6,844.3h28.8l-1.4,10h-26.3c-1.4,0-2.8,1.2-3,2.5l-1.4,9.9h21.3l-1.4,9.9h-21.3l-3.5,25.1h-11.1
			l6.6-46.4C1308.7,849.3,1314.5,844.3,1320.6,844.3z"/>
		<path fill="#00AEEF" d="M1358.9,901.8h-11.1l8.1-57.5h11.1L1358.9,901.8z"/>
		<path fill="#00AEEF" d="M1421.4,846.4l-1.5,10.5h-1.3c-3.5-2.1-8.9-3.4-13.3-3.4c-4.8-0.1-9.4,1.5-13.1,5.3
			c-3.6,3.8-5.6,9.4-6.2,14.2c-0.7,4.8-0.3,10.6,2.4,14.4c2.6,3.5,6.9,5.3,11.7,5.2c4.4,0,10.1-1.3,14.2-3.4h1.5l-1.5,10.4
			c-5.4,1.9-10,3-15.5,3c-7.2,0-14-2.4-18.4-7.5c-5.6-6.1-7-14.3-5.8-22.9c1-7.2,4.4-14.9,10.3-20.7c6.2-6,13.8-8.2,21.9-8.2
			C1412.3,843.5,1416.6,844.6,1421.4,846.4z"/>
	</g>
	<g>
		<path d="M368,685.8c2.5-17.2,18.2-30.8,35.4-30.8h21.2c13.1,0.5,25.8,1,37.9,7.1c15.7,8.1,20.7,26.3,18.2,44.5
			c-2.5,16.7-10.6,32.9-27.3,42c-13.1,7.6-28.3,8.6-43,8.6h-21.7l-8.1,57.6h-30.8L368,685.8z M392.8,729.3h23.3
			c15.2,0,30.3-6.1,32.9-23.8c3-20.7-8.1-23.8-27.8-23.8h-18.2c-4,0-4.6,3.5-5.1,7.6L392.8,729.3z"/>
		<path d="M546.5,803.1c-9.6,9.1-22.2,13.7-33.9,13.7c-23.8,0-38.9-16.2-36.4-39.4c2.5-21.7,21.2-36.4,39.9-38.9l39.9-5.6
			c0.5-11.6-17.2-15.7-25.3-15.7c-10.1,0-22.8,2.5-32.4,7.1h-3l3.5-26.3c11.6-3,23.8-6.1,36.4-6.1c27.3,0,52.6,10.1,49,40.4
			l-11.6,81.4H545L546.5,803.1z M521.2,791.5c9.1,0,18.7-3.5,26.8-8.1l3.5-26.8c-10.1,2-20.2,2.5-30.3,5.1
			c-8.1,1.5-14.7,6.1-16.2,15.2C504,787.4,511.6,791.5,521.2,791.5z"/>
		<path d="M695.1,725.7c-6.6-6.1-19.7-8.1-30.3-8.1c-11.1,0-18.7,4-24.3,10.1c-6.1,7.1-9.1,16.2-10.6,26.8c-1,8.1-0.5,15.7,2,21.7
			c3.5,8.6,10.6,14.7,22.2,14.7c10.6,0,23.8-2,32.9-6.6h3.5l-3.5,24.8c-13.1,6.1-25.3,8.1-36.9,8.1c-19.7,0-35.9-11.6-44-26.3
			c-5.6-10.1-7.6-23.3-5.6-37.4c2-17.7,10.1-32.9,21.2-44c11.6-11.6,27.3-16.7,45-16.7c13.1,0,23.8,3,35.4,8.1l-3.5,25.8h-3.5V725.7
			z"/>
		<path d="M821.5,814.2h-33.9l-32.9-56.1l-11.1,8.6l-7.1,48h-28.8L731,647.9h28.8l-11.6,84.4l46-36.9h42.5l-59.2,45.5L821.5,814.2
			L821.5,814.2z"/>
		<path d="M856.9,776.8c-1.5,10.1,5.1,14.2,13.7,14.2c6.1,0,12.1-2.5,18.2-5.1h3.5l-3.5,25.3c-9.1,3-16.2,5.1-25.3,5.1
			c-28.3,0-38.9-16.2-34.9-44.5l17.7-124.9h28.8L856.9,776.8z"/>
		<path d="M960.6,792c10.1,0,22.2-2,32.4-7.6h3.5l-4,27.3c-13.7,4-24.8,5.1-37.9,5.1c-16.7,0-33.9-5.6-45-17.2
			c-9.1-9.6-13.7-26.3-12.6-39.4c1.5-20.2,6.6-34.9,19.7-49c11.1-12.6,27.8-18.7,45-18.7c21.7,0,38.4,11.1,44,31.3
			c4,14.7,2,27.8-0.5,42.5h-78.4C927.7,784.9,943.9,792.5,960.6,792z M930.7,741.9h48.5c1-15.2-5.6-24.3-20.2-24.8
			C944.4,717.1,934.3,728.3,930.7,741.9z"/>
		<path d="M1091.5,803.1c-9.6,9.1-22.2,13.7-33.9,13.7c-23.8,0-38.9-16.2-36.4-39.4c2.5-21.7,21.2-36.4,39.9-38.9l39.9-5.6
			c0.5-11.6-17.2-15.7-25.3-15.7c-10.1,0-23.3,2.5-32.4,7.1h-3l3.5-26.3c11.6-3,23.8-6.1,36.4-6.1c27.3,0,52.6,10.1,49,40.4
			l-11.1,81.4h-27.8L1091.5,803.1z M1066.2,791.5c9.1,0,18.7-3.5,26.8-8.1l3.5-26.8c-10.1,2-20.2,2.5-30.3,5.1
			c-8.1,1.5-14.7,6.1-16.2,15.2C1049,787.4,1057.1,791.5,1066.2,791.5z"/>
		<path d="M1196.2,816.7c-20.7-0.5-37.4-9.1-45.5-27.3c-5.1-11.6-5.6-25.3-3.5-38.4c2.5-15.2,7.1-29.8,18.7-42
			c11.6-11.6,27.8-16.7,44.5-16.7c8.1,0,15.2,1,22.2,6.1l7.1-51.1h28.8l-19.7,140.5c-2.5,16.2-16.7,28.8-32.9,28.8H1196.2z
			 M1228.5,720.7c-6.6-1.5-12.6-3-19.7-3c-9.1,0.5-17.2,3-23.3,11.1c-5.1,6.6-7.6,15.7-8.6,23.8c-1.5,9.6-2.5,23.3,4,30.8
			c5.1,6.1,14.2,7.1,21.7,7.1h9.6c3.5,0,7.1-3,7.6-6.6L1228.5,720.7z"/>
		<path d="M1336.2,792c10.1,0,22.2-2,32.4-7.6h3.5l-4,27.3c-13.7,4-24.8,5.1-37.9,5.1c-16.7,0-33.9-5.6-45-17.2
			c-9.6-9.6-13.7-26.3-12.6-39.4c1.5-20.2,7.1-34.9,19.7-49c11.6-12.6,27.8-18.7,45-18.7c21.7,0,38.4,11.1,44,31.3
			c4,14.7,2,27.8-0.5,42.5h-78.4C1303.3,784.9,1319.5,792.5,1336.2,792z M1306.9,741.9h48.5c1-15.2-5.6-24.3-20.2-24.8
			C1320,717.1,1309.9,728.3,1306.9,741.9z"/>
		<path d="M1475.7,719.7h-4c-9.1-4-25.3,0-34.9,6.1l-12.6,88.5h-28.8l16.7-119.3h27.8l-1,7.6c13.1-6.1,26.3-10.1,40.4-10.1
			L1475.7,719.7z"/>
	</g>
	<g>
		
			<radialGradient id="SVGID_1_" cx="32.8006" cy="1470.8583" r="29.061" gradientTransform="matrix(4.3584 -2.5617 -1.9823 -3.3731 2938.553 5760.707)" gradientUnits="userSpaceOnUse">
			<stop  offset="1.871410e-02" style="stop-color:#FBB040"/>
			<stop  offset="0.1916" style="stop-color:#FBAD3F"/>
			<stop  offset="0.3561" style="stop-color:#FAA53C"/>
			<stop  offset="0.5173" style="stop-color:#F89738"/>
			<stop  offset="0.6764" style="stop-color:#F58432"/>
			<stop  offset="0.8326" style="stop-color:#F26A2C"/>
			<stop  offset="0.9061" style="stop-color:#F15A29"/>
		</radialGradient>
		<path fill="url(#SVGID_1_)" d="M251.3,616.5c0,0-57.6-20.7-70.8-24.8c-13.1-3.5-29.3-6.1-46,4L87,625.1l115.3,39.4
			c63.2,18.2,39.4,49,32.4,53.6c-3.5,2.5-16.2,10.1-36.4,23.8l-1.5,1c-22.2,13.7-20.7,32.4-20.2,35.9L178,840
			c0,0,36.4,12.6,38.9,12.6c0,0,21.2-9.1,21.2-30.8l-1.5-70.3l46.5-31.9l1.5-2.5C303.8,649.4,271.5,625.1,251.3,616.5z"/>
		
			<radialGradient id="SVGID_2_" cx="-710.5747" cy="1441.8961" r="22.6562" gradientTransform="matrix(5.0556 0 0 -4.1709 3696.9358 6816.7715)" gradientUnits="userSpaceOnUse">
			<stop  offset="0.6069" style="stop-color:#00AEEF"/>
			<stop  offset="1" style="stop-color:#1C75BC"/>
		</radialGradient>
		<path fill="url(#SVGID_2_)" d="M130.4,830.9c-39.4-13.7-47.5-41.5-46.5-68.8V626.6l-18.2,10.6C17.2,670.6,22.2,707,22.2,709
			l0.5,69.8c0,78.9,53.1,98.1,61.2,101.1l47,16.7c5.1,1.5,9.6,1.5,13.7,1.5c7.1,0,11.1-2,13.7-3.5l55.6-35.4L130.4,830.9z"/>
	</g>
</g>
</svg>
