<?xml version="1.0" encoding="utf-8"?>
<!-- Generator: Adobe Illustrator 17.1.0, SVG Export Plug-In . SVG Version: 6.00 Build 0)  -->
<!DOCTYPE svg PUBLIC "-//W3C//DTD SVG 1.1//EN" "http://www.w3.org/Graphics/SVG/1.1/DTD/svg11.dtd">
<svg version="1.1" id="Layer_1" xmlns="http://www.w3.org/2000/svg" xmlns:xlink="http://www.w3.org/1999/xlink" x="0px" y="0px"
	 viewBox="0 0 296.7 72" enable-background="new 0 0 296.7 72" xml:space="preserve">
<g>
	<text transform="matrix(1 0 0 1 221.8527 66.0303)" fill="#00AEEF" font-family="'Oblik-BoldItalic'" font-size="16.2536">PACIFIC</text>
	<g>
		<path d="M72.8,23.3c0.5-3.4,3.6-6.1,7-6.1H84c2.6,0.1,5.1,0.2,7.5,1.4c3.1,1.6,4.1,5.2,3.6,8.8c-0.5,3.3-2.1,6.5-5.4,8.3
			c-2.6,1.5-5.6,1.7-8.5,1.7h-4.3l-1.6,11.4h-6.1L72.8,23.3z M77.7,31.9h4.6c3,0,6-1.2,6.5-4.7c0.6-4.1-1.6-4.7-5.5-4.7h-3.6
			c-0.8,0-0.9,0.7-1,1.5L77.7,31.9z"/>
		<path d="M108.1,46.5c-1.9,1.8-4.4,2.7-6.7,2.7c-4.7,0-7.7-3.2-7.2-7.8c0.5-4.3,4.2-7.2,7.9-7.7l7.9-1.1c0.1-2.3-3.4-3.1-5-3.1
			c-2,0-4.5,0.5-6.4,1.4H98l0.7-5.2c2.3-0.6,4.7-1.2,7.2-1.2c5.4,0,10.4,2,9.7,8l-2.3,16.1h-5.5L108.1,46.5z M103.1,44.2
			c1.8,0,3.7-0.7,5.3-1.6l0.7-5.3c-2,0.4-4,0.5-6,1c-1.6,0.3-2.9,1.2-3.2,3C99.7,43.4,101.2,44.2,103.1,44.2z"/>
		<path d="M137.5,31.2c-1.3-1.2-3.9-1.6-6-1.6c-2.2,0-3.7,0.8-4.8,2c-1.2,1.4-1.8,3.2-2.1,5.3c-0.2,1.6-0.1,3.1,0.4,4.3
			c0.7,1.7,2.1,2.9,4.4,2.9c2.1,0,4.7-0.4,6.5-1.3h0.7l-0.7,4.9c-2.6,1.2-5,1.6-7.3,1.6c-3.9,0-7.1-2.3-8.7-5.2
			c-1.1-2-1.5-4.6-1.1-7.4c0.4-3.5,2-6.5,4.2-8.7c2.3-2.3,5.4-3.3,8.9-3.3c2.6,0,4.7,0.6,7,1.6l-0.7,5.1H137.5z"/>
		<path d="M162.5,48.7h-6.7l-6.5-11.1l-2.2,1.7l-1.4,9.5h-5.7l4.6-33h5.7l-2.3,16.7l9.1-7.3h8.4l-11.7,9L162.5,48.7L162.5,48.7z"/>
		<path d="M169.5,41.3c-0.3,2,1,2.8,2.7,2.8c1.2,0,2.4-0.5,3.6-1h0.7l-0.7,5c-1.8,0.6-3.2,1-5,1c-5.6,0-7.7-3.2-6.9-8.8l3.5-24.7
			h5.7L169.5,41.3z"/>
		<path d="M190,44.3c2,0,4.4-0.4,6.4-1.5h0.7l-0.8,5.4c-2.7,0.8-4.9,1-7.5,1c-3.3,0-6.7-1.1-8.9-3.4c-1.8-1.9-2.7-5.2-2.5-7.8
			c0.3-4,1.3-6.9,3.9-9.7c2.2-2.5,5.5-3.7,8.9-3.7c4.3,0,7.6,2.2,8.7,6.2c0.8,2.9,0.4,5.5-0.1,8.4h-15.5
			C183.5,42.9,186.7,44.4,190,44.3z M184.1,34.4h9.6c0.2-3-1.1-4.8-4-4.9C186.8,29.5,184.8,31.7,184.1,34.4z"/>
		<path d="M215.9,46.5c-1.9,1.8-4.4,2.7-6.7,2.7c-4.7,0-7.7-3.2-7.2-7.8c0.5-4.3,4.2-7.2,7.9-7.7l7.9-1.1c0.1-2.3-3.4-3.1-5-3.1
			c-2,0-4.6,0.5-6.4,1.4h-0.6l0.7-5.2c2.3-0.6,4.7-1.2,7.2-1.2c5.4,0,10.4,2,9.7,8l-2.2,16.1h-5.5L215.9,46.5z M210.9,44.2
			c1.8,0,3.7-0.7,5.3-1.6l0.7-5.3c-2,0.4-4,0.5-6,1c-1.6,0.3-2.9,1.2-3.2,3C207.5,43.4,209.1,44.2,210.9,44.2z"/>
		<path d="M236.6,49.2c-4.1-0.1-7.4-1.8-9-5.4c-1-2.3-1.1-5-0.7-7.6c0.5-3,1.4-5.9,3.7-8.3c2.3-2.3,5.5-3.3,8.8-3.3
			c1.6,0,3,0.2,4.4,1.2l1.4-10.1h5.7l-3.9,27.8c-0.5,3.2-3.3,5.7-6.5,5.7H236.6z M243,30.2c-1.3-0.3-2.5-0.6-3.9-0.6
			c-1.8,0.1-3.4,0.6-4.6,2.2c-1,1.3-1.5,3.1-1.7,4.7c-0.3,1.9-0.5,4.6,0.8,6.1c1,1.2,2.8,1.4,4.3,1.4h1.9c0.7,0,1.4-0.6,1.5-1.3
			L243,30.2z"/>
		<path d="M264.3,44.3c2,0,4.4-0.4,6.4-1.5h0.7l-0.8,5.4c-2.7,0.8-4.9,1-7.5,1c-3.3,0-6.7-1.1-8.9-3.4c-1.9-1.9-2.7-5.2-2.5-7.8
			c0.3-4,1.4-6.9,3.9-9.7c2.3-2.5,5.5-3.7,8.9-3.7c4.3,0,7.6,2.2,8.7,6.2c0.8,2.9,0.4,5.5-0.1,8.4h-15.5
			C257.8,42.9,261,44.4,264.3,44.3z M258.5,34.4h9.6c0.2-3-1.1-4.8-4-4.9C261.1,29.5,259.1,31.7,258.5,34.4z"/>
		<path d="M291.9,30h-0.8c-1.8-0.8-5,0-6.9,1.2l-2.5,17.5H276l3.3-23.6h5.5l-0.2,1.5c2.6-1.2,5.2-2,8-2L291.9,30z"/>
	</g>
	<g>
		
			<radialGradient id="SVGID_1_" cx="32.8006" cy="29.1418" r="29.061" gradientTransform="matrix(0.8621 -0.5067 0.3921 0.6672 -6.9042 26.3178)" gradientUnits="userSpaceOnUse">
			<stop  offset="1.871410e-02" style="stop-color:#FBB040"/>
			<stop  offset="0.1916" style="stop-color:#FBAD3F"/>
			<stop  offset="0.3561" style="stop-color:#FAA53C"/>
			<stop  offset="0.5173" style="stop-color:#F89738"/>
			<stop  offset="0.6764" style="stop-color:#F58432"/>
			<stop  offset="0.8326" style="stop-color:#F26A2C"/>
			<stop  offset="0.9061" style="stop-color:#F15A29"/>
		</radialGradient>
		<path fill="url(#SVGID_1_)" d="M49.7,9.6c0,0-11.4-4.1-14-4.9c-2.6-0.7-5.8-1.2-9.1,0.8l-9.4,5.8L40,19.1
			c12.5,3.6,7.8,9.7,6.4,10.6c-0.7,0.5-3.2,2-7.2,4.7l-0.3,0.2c-4.4,2.7-4.1,6.4-4,7.1l0.3,12.1c0,0,7.2,2.5,7.7,2.5
			c0,0,4.2-1.8,4.2-6.1l-0.3-13.9L56,30l0.3-0.5C60.1,16.1,53.7,11.3,49.7,9.6z"/>
		
			<radialGradient id="SVGID_2_" cx="-710.5747" cy="58.1039" r="22.6562" gradientTransform="matrix(1 0 0 0.825 731.2539 -1.4926)" gradientUnits="userSpaceOnUse">
			<stop  offset="0.6069" style="stop-color:#00AEEF"/>
			<stop  offset="1" style="stop-color:#1C75BC"/>
		</radialGradient>
		<path fill="url(#SVGID_2_)" d="M25.8,52c-7.8-2.7-9.4-8.2-9.2-13.6l0-26.8L13,13.7c-9.6,6.6-8.6,13.8-8.6,14.2l0.1,13.8
			c0,15.6,10.5,19.4,12.1,20c0,0,9.3,3.3,9.3,3.3c1,0.3,1.9,0.3,2.7,0.3c1.4,0,2.2-0.4,2.7-0.7l11-7L25.8,52z"/>
	</g>
</g>
</svg>
