<?xml version="1.0" encoding="utf-8"?>
<!-- Generator: Adobe Illustrator 17.1.0, SVG Export Plug-In . SVG Version: 6.00 Build 0)  -->
<!DOCTYPE svg PUBLIC "-//W3C//DTD SVG 1.1//EN" "http://www.w3.org/Graphics/SVG/1.1/DTD/svg11.dtd">
<svg version="1.1" id="Layer_1" xmlns="http://www.w3.org/2000/svg" xmlns:xlink="http://www.w3.org/1999/xlink" x="0px" y="0px"
	 viewBox="0 0 116 122" enable-background="new 0 0 116 122" xml:space="preserve">
<g>
	
		<image overflow="visible" opacity="0.3" width="519" height="519" xlink:href="56D041FDAC16D22A.png"  transform="matrix(0.24 0 0 0.24 -4.2118 -0.7713)">
	</image>
	<g>
		<g>
			<radialGradient id="SVGID_1_" cx="57.9687" cy="58.5737" r="53.6763" gradientUnits="userSpaceOnUse">
				<stop  offset="0" style="stop-color:#00AEEF"/>
				<stop  offset="1" style="stop-color:#1C75BC"/>
			</radialGradient>
			<circle fill="url(#SVGID_1_)" cx="58" cy="58.6" r="53.7"/>
			<radialGradient id="SVGID_2_" cx="57.14" cy="35.7876" r="75.3334" gradientUnits="userSpaceOnUse">
				<stop  offset="0" style="stop-color:#00AEEF"/>
				<stop  offset="1" style="stop-color:#1C75BC"/>
			</radialGradient>
			<circle fill="url(#SVGID_2_)" cx="58" cy="58.6" r="52.5"/>
			<radialGradient id="SVGID_3_" cx="57.9688" cy="58.5728" r="42.6074" gradientUnits="userSpaceOnUse">
				<stop  offset="0" style="stop-color:#00AEEF"/>
				<stop  offset="1" style="stop-color:#1C75BC"/>
			</radialGradient>
			<circle fill="url(#SVGID_3_)" cx="58" cy="58.6" r="42.6"/>
			<linearGradient id="SVGID_4_" gradientUnits="userSpaceOnUse" x1="16.5244" y1="58.5718" x2="99.4131" y2="58.5718">
				<stop  offset="0" style="stop-color:#2484C6"/>
				<stop  offset="1" style="stop-color:#1C75BC"/>
			</linearGradient>
			<circle fill="url(#SVGID_4_)" cx="58" cy="58.6" r="41.4"/>
			<defs>
				<filter id="Adobe_OpacityMaskFilter" filterUnits="userSpaceOnUse" x="20.4" y="21" width="75.2" height="42.1">
					<feFlood  style="flood-color:white;flood-opacity:1" result="back"/>
					<feBlend  in="SourceGraphic" in2="back" mode="normal"/>
				</filter>
			</defs>
			<mask maskUnits="userSpaceOnUse" x="20.4" y="21" width="75.2" height="42.1" id="SVGID_5_">
				<g filter="url(#Adobe_OpacityMaskFilter)">
					<linearGradient id="SVGID_6_" gradientUnits="userSpaceOnUse" x1="57.7227" y1="19.2671" x2="57.7227" y2="63.5323">
						<stop  offset="0" style="stop-color:#D9D9D9"/>
						<stop  offset="6.957060e-02" style="stop-color:#BABAB9"/>
						<stop  offset="0.1806" style="stop-color:#8F8E8E"/>
						<stop  offset="0.2968" style="stop-color:#6A6868"/>
						<stop  offset="0.417" style="stop-color:#4C4A49"/>
						<stop  offset="0.5422" style="stop-color:#353231"/>
						<stop  offset="0.6748" style="stop-color:#242120"/>
						<stop  offset="0.8197" style="stop-color:#1A1716"/>
						<stop  offset="1" style="stop-color:#171413"/>
					</linearGradient>
					<rect x="18.6" y="19.3" fill="url(#SVGID_6_)" width="78.3" height="44.4"/>
				</g>
			</mask>
			<linearGradient id="SVGID_7_" gradientUnits="userSpaceOnUse" x1="57.9736" y1="20.9956" x2="57.9736" y2="62.993">
				<stop  offset="0" style="stop-color:#FFFFFF"/>
				<stop  offset="8.962709e-02" style="stop-color:#FFFFFF"/>
				<stop  offset="1" style="stop-color:#FFFFFF"/>
			</linearGradient>
			<path mask="url(#SVGID_5_)" fill="url(#SVGID_7_)" d="M95.6,59.2c0,10.5-18.8-3.5-37.6-3.5c-18.8,0-37.6,14-37.6,3.5
				C20.4,38.1,37.2,21,58,21C78.7,21,95.6,38.1,95.6,59.2z"/>
			<defs>
				<filter id="Adobe_OpacityMaskFilter_1_" filterUnits="userSpaceOnUse" x="26.2" y="78.5" width="63.6" height="17.8">
					<feFlood  style="flood-color:white;flood-opacity:1" result="back"/>
					<feBlend  in="SourceGraphic" in2="back" mode="normal"/>
				</filter>
			</defs>
			<mask maskUnits="userSpaceOnUse" x="26.2" y="78.5" width="63.6" height="17.8" id="SVGID_8_">
				<g filter="url(#Adobe_OpacityMaskFilter_1_)">
					<linearGradient id="SVGID_9_" gradientUnits="userSpaceOnUse" x1="58.1338" y1="119.0772" x2="58.1338" y2="74.3008">
						<stop  offset="0" style="stop-color:#D9D9D9"/>
						<stop  offset="6.957060e-02" style="stop-color:#BABAB9"/>
						<stop  offset="0.1806" style="stop-color:#8F8E8E"/>
						<stop  offset="0.2968" style="stop-color:#6A6868"/>
						<stop  offset="0.417" style="stop-color:#4C4A49"/>
						<stop  offset="0.5422" style="stop-color:#353231"/>
						<stop  offset="0.6748" style="stop-color:#242120"/>
						<stop  offset="0.8197" style="stop-color:#1A1716"/>
						<stop  offset="1" style="stop-color:#171413"/>
					</linearGradient>
					<rect x="24.7" y="76.7" fill="url(#SVGID_9_)" width="66.9" height="20.7"/>
				</g>
			</mask>
			<linearGradient id="SVGID_10_" gradientUnits="userSpaceOnUse" x1="57.9727" y1="114.8233" x2="57.9727" y2="76.4327">
				<stop  offset="0" style="stop-color:#FFFFFF"/>
				<stop  offset="8.962709e-02" style="stop-color:#FFFFFF"/>
				<stop  offset="1" style="stop-color:#FFFFFF"/>
			</linearGradient>
			<path mask="url(#SVGID_8_)" fill="url(#SVGID_10_)" d="M58,92.3c-12.8,0-24.2-5.4-31.8-13.8C32.9,89.1,44.6,96.2,58,96.2
				c13.4,0,25.1-7.1,31.8-17.8C82.2,86.9,70.8,92.3,58,92.3z"/>
		</g>
	</g>
</g>
<rect x="-20.8" y="41.4" fill="none" width="159.4" height="37.9"/>
<text transform="matrix(1 0 0 1 47.1856 53.498)"><tspan x="0" y="0" fill="#FFFFFF" font-family="'Oblik-Light'" font-size="16.5202">Get  </tspan><tspan x="-12" y="18" fill="#FFFFFF" font-family="'Oblik-Light'" font-size="16.5202">Started</tspan></text>
</svg>
