<?xml version="1.0" encoding="utf-8"?>
<!-- Generator: Adobe Illustrator 17.1.0, SVG Export Plug-In . SVG Version: 6.00 Build 0)  -->
<!DOCTYPE svg PUBLIC "-//W3C//DTD SVG 1.1//EN" "http://www.w3.org/Graphics/SVG/1.1/DTD/svg11.dtd">
<svg version="1.1" id="Layer_1" xmlns="http://www.w3.org/2000/svg" xmlns:xlink="http://www.w3.org/1999/xlink" x="0px" y="0px"
	 viewBox="0 0 30.7 30.7" enable-background="new 0 0 30.7 30.7" xml:space="preserve">
<circle display="none" fill="#00AEEF" cx="15.3" cy="15.3" r="15.3"/>
<linearGradient id="SVGID_1_" gradientUnits="userSpaceOnUse" x1="28.3652" y1="15.333" x2="0.1489" y2="15.333">
	<stop  offset="0.6069" style="stop-color:#00AEEF"/>
	<stop  offset="1" style="stop-color:#1C75BC"/>
</linearGradient>
<circle opacity="0.4" fill="url(#SVGID_1_)" cx="15.3" cy="15.3" r="15.3"/>
<path fill="#FFFFFF" d="M15.3,4.5c-6,0-10.8,4.8-10.8,10.8c0,6,4.8,10.8,10.8,10.8c6,0,10.8-4.8,10.8-10.8
	C26.1,9.4,21.3,4.5,15.3,4.5z M21.9,16.4c-1.3,1.3-3.9,3.9-4.7,4.7c-0.6,0.6-1.5,0.6-2.1,0c-0.6-0.6-0.6-1.5,0-2.1
	c0.2-0.2,1.2-1.2,2.2-2.2c0,0-6.2,0-7.6,0c-0.8,0-1.5-0.7-1.5-1.5c0-0.8,0.7-1.5,1.5-1.5c1.4,0,7.6,0,7.6,0c-1-1.1-2-2-2.2-2.2
	c-0.6-0.6-0.6-1.5,0-2.1c0.6-0.6,1.5-0.6,2.1,0c0.8,0.8,3.4,3.4,4.7,4.7c0.3,0.3,0.4,0.6,0.4,1C22.4,15.7,22.2,16.1,21.9,16.4z"/>
</svg>
