<?xml version="1.0" encoding="utf-8"?>
<!-- Generator: Adobe Illustrator 17.1.0, SVG Export Plug-In . SVG Version: 6.00 Build 0)  -->
<!DOCTYPE svg PUBLIC "-//W3C//DTD SVG 1.1//EN" "http://www.w3.org/Graphics/SVG/1.1/DTD/svg11.dtd">
<svg version="1.1" id="Layer_1" xmlns="http://www.w3.org/2000/svg" xmlns:xlink="http://www.w3.org/1999/xlink" x="0px" y="0px"
	 viewBox="0 0 1500 1500" enable-background="new 0 0 1500 1500" xml:space="preserve">
<radialGradient id="SVGID_1_" cx="-928.511" cy="1003.4099" r="119.3792" gradientTransform="matrix(5.161 4.431818e-02 5.681818e-03 -0.6508 5353.9937 2066.8188)" gradientUnits="userSpaceOnUse">
	<stop  offset="3.684210e-02" style="stop-color:#818181"/>
	<stop  offset="0.2078" style="stop-color:#A3A2A2"/>
	<stop  offset="0.384" style="stop-color:#C5C3C3"/>
	<stop  offset="0.5472" style="stop-color:#E1DFDF"/>
	<stop  offset="0.691" style="stop-color:#F1F2F2"/>
	<stop  offset="0.8" style="stop-color:#F1F2F2"/>
</radialGradient>
<path fill="url(#SVGID_1_)" d="M1184.1,1378c-0.4,42.8-276.5,75.4-617,72.3s-616.3-40.2-615.9-83c0.4-42.8,276.5-75.4,617-72.3
	C908.7,1297.7,1184.5,1334.8,1184.1,1378z"/>
<g>
	<g>
		<path fill="#989898" d="M723.1,1401.9c-31.4,0-89.8-1.9-89.8-1.9c-21.6-6.4-81.1-22-108-30.3c-13.6-4.2-27.3-11-33.7-20.5
			c4.9,14.4,15.5,19.7,31.4,25.4c26.5,9.5,70.8,20.1,99.6,28C651.5,1410.2,728.8,1401.9,723.1,1401.9z"/>
	</g>
	<g>
		
			<linearGradient id="SVGID_2_" gradientUnits="userSpaceOnUse" x1="127.9416" y1="1157.0411" x2="276.7201" y2="1157.0411" gradientTransform="matrix(3.7879 0 0 -3.7879 0 5685.606)">
			<stop  offset="0.2053" style="stop-color:#FFFFFF"/>
			<stop  offset="0.2676" style="stop-color:#D2D0D0"/>
			<stop  offset="0.3376" style="stop-color:#B2B0B0"/>
			<stop  offset="0.4092" style="stop-color:#9B999A"/>
			<stop  offset="0.4821" style="stop-color:#8C8B8B"/>
			<stop  offset="0.5569" style="stop-color:#838383"/>
			<stop  offset="0.6368" style="stop-color:#818181"/>
		</linearGradient>
		<path fill="url(#SVGID_2_)" d="M1048.1,1385.2c0.8-1.9-3.8-1.5-15.5-4.9c-31.8-8.3-199.2-34.8-206.8-37.1c0,0-45.5-11.7-45.5-58.3
			c0-46.6,2.3-83,2.3-83l-259.1,1.1c0,0-0.4,0.8-0.8,1.9h-12.1c0,0-14.4,59.8-25,114.4c-5.3,28,11.7,43.2,36.7,50.8
			c26.9,8.3,86.4,23.9,108,30.3c0,0,19.3,3.4,50.8,3.4s327.3-6.4,336.7-7.6c6.1-0.8,18.2-1.1,25-3.4
			C1045.8,1391.7,1048.5,1390.5,1048.1,1385.2z"/>
		
			<linearGradient id="SVGID_3_" gradientUnits="userSpaceOnUse" x1="202.2641" y1="1130.3828" x2="202.2641" y2="1183.6842" gradientTransform="matrix(3.7879 0 0 -3.7879 0 5685.606)">
			<stop  offset="0" style="stop-color:#E7E7E7"/>
			<stop  offset="0.1507" style="stop-color:#DFDEDE"/>
			<stop  offset="0.3192" style="stop-color:#CCCBCA"/>
			<stop  offset="0.4962" style="stop-color:#B1AEAE"/>
			<stop  offset="0.6792" style="stop-color:#8F8C8C"/>
			<stop  offset="0.8648" style="stop-color:#6A6767"/>
			<stop  offset="1" style="stop-color:#4E4E4E"/>
		</linearGradient>
		<path fill="url(#SVGID_3_)" d="M1047.7,1385.2c0.8-1.9-4.2-2.7-15.9-5.7c-31.8-8.3-198.5-34.1-206.1-36c0,0-45.5-11.7-45.5-58.3
			c0-46.6,2.3-83,2.3-83l-259.1,1.1c0,0-0.4,0.8-0.8,1.9h-12.1c0,0-14.4,59.8-25,114.4c-5.3,28,11.7,43.2,36.7,50.8
			c26.9,8.3,86.4,23.9,108,30.3c0,0,19.3,3.4,50.8,3.4s327.3-6.4,336.7-7.6c6.1-0.8,18.2-1.1,25-3.4
			C1045.8,1391.7,1048.1,1390.5,1047.7,1385.2z"/>
		
			<linearGradient id="SVGID_4_" gradientUnits="userSpaceOnUse" x1="203.8473" y1="1132.2245" x2="201.8642" y2="1189.0146" gradientTransform="matrix(3.7879 0 0 -3.7879 0 5685.606)">
			<stop  offset="0.1842" style="stop-color:#CDCCCC"/>
			<stop  offset="0.214" style="stop-color:#BDBCBC"/>
			<stop  offset="0.3243" style="stop-color:#908F8F"/>
			<stop  offset="0.3789" style="stop-color:#818181"/>
			<stop  offset="0.3887" style="stop-color:#878787"/>
			<stop  offset="0.4637" style="stop-color:#BBBABA"/>
			<stop  offset="0.5186" style="stop-color:#E2E1E1"/>
			<stop  offset="0.5474" style="stop-color:#F4F4F4"/>
			<stop  offset="0.5784" style="stop-color:#E3E3E3"/>
			<stop  offset="0.6418" style="stop-color:#C9C8C8"/>
			<stop  offset="0.6968" style="stop-color:#B9B9B9"/>
			<stop  offset="0.7368" style="stop-color:#B4B4B4"/>
			<stop  offset="1" style="stop-color:#676767"/>
		</linearGradient>
		<path fill="url(#SVGID_4_)" d="M522.3,1190.2c0,0-21.6,74.2-28,117.4c-3,19.7,4.9,36.4,18.2,39.8c0,0,93.9,36.7,115.5,43.2
			c0,0,19.3,3.4,50.8,3.4c31.4,0,327.7-4.9,337.5-5.7c9.8-1.1,54.2-2.3,15.5-10.2c-32.2-6.8-195.5-34.5-203-36.7c0,0-42-9.8-42-56.1
			c0-46.6,9.8-93.9,9.8-93.9L522.3,1190.2z"/>
		<g opacity="8.000000e-02">
			<path fill="#232520" d="M493.9,1322.3c1.9,12.9,8.7,22.7,18.6,25.4c0,0,93.9,36.7,115.5,43.2c0,0,19.3,3.4,50.8,3.4
				c7.6,0,29.9,0,59.8-0.4c18.6-39.8,43.9-60.2,61.7-70.1c-3.4-3.8-6.4-8.3-8.7-13.3L493.9,1322.3z"/>
		</g>
		<path fill="#FFFFFF" d="M1047.7,1383.3c-6.8,2.3-21.6,3-26.9,3.8c-10.2,1.1-307.2,4.5-338.6,4.5s-50.8-2.3-50.8-2.3
			c-14.4-4.2-68.9-21.6-89.8-29.9l-0.4,0.4c29.5,11.4,74.2,28,88.3,32.2c0,0,18.9,3,50.4,3c31.4,0,328-3.8,337.9-4.9
			C1024.6,1389.4,1050.4,1387.9,1047.7,1383.3z"/>
	</g>
</g>
<g>
	
		<linearGradient id="SVGID_5_" gradientUnits="userSpaceOnUse" x1="196.7565" y1="1181.791" x2="196.7565" y2="1490.5513" gradientTransform="matrix(3.7879 0 0 -3.7879 0 5685.606)">
		<stop  offset="5.263160e-03" style="stop-color:#818181"/>
		<stop  offset="8.415895e-03" style="stop-color:#908F8F"/>
		<stop  offset="1.455727e-02" style="stop-color:#ADABAB"/>
		<stop  offset="2.112988e-02" style="stop-color:#C6C4C4"/>
		<stop  offset="2.817301e-02" style="stop-color:#DCDADA"/>
		<stop  offset="3.590984e-02" style="stop-color:#EDECEB"/>
		<stop  offset="4.486698e-02" style="stop-color:#F9F9F9"/>
		<stop  offset="5.789470e-02" style="stop-color:#FFFFFF"/>
		<stop  offset="7.907102e-02" style="stop-color:#E8E7E6"/>
		<stop  offset="0.1076" style="stop-color:#D4D3D2"/>
		<stop  offset="0.1263" style="stop-color:#CDCCCC"/>
		<stop  offset="0.1962" style="stop-color:#DADAD9"/>
		<stop  offset="0.2842" style="stop-color:#E7E7E7"/>
	</linearGradient>
	<path fill="url(#SVGID_5_)" d="M1458.3,1118.2l-84.1-796.6c-2.3-23.5-14.8-42.4-38.3-46.6L86.4,40.5c-12.1-2.3-22.7-0.4-30.3,5.3
		c-18.2,6.4-31.1,36-30.7,55.7l24.2,1060.2c0.4,23.9,20.1,43.2,43.9,43.2l1311,4.2c23.9,0,62.9-19.3,60.6-42.8L1458.3,1118.2z"/>
	
		<linearGradient id="SVGID_6_" gradientUnits="userSpaceOnUse" x1="196.7565" y1="1181.791" x2="196.7565" y2="1490.5513" gradientTransform="matrix(3.7879 0 0 -3.7879 0 5685.606)">
		<stop  offset="0.903" style="stop-color:#F3F3F3"/>
		<stop  offset="0.9186" style="stop-color:#E3E3E3"/>
		<stop  offset="0.9474" style="stop-color:#C1BFBF"/>
		<stop  offset="0.9859" style="stop-color:#919090"/>
		<stop  offset="1" style="stop-color:#818181"/>
	</linearGradient>
	<path fill="url(#SVGID_6_)" d="M1458.3,1118.2l-84.1-796.6c-2.3-23.5-14.8-42.4-38.3-46.6L86.4,40.5c-12.1-2.3-22.7-0.4-30.3,5.3
		c-18.2,6.4-31.1,36-30.7,55.7l24.2,1060.2c0.4,23.9,20.1,43.2,43.9,43.2l1311,4.2c23.9,0,62.9-19.3,60.6-42.8L1458.3,1118.2z"/>
	<path fill="#FFFFFF" d="M1464.8,1158c2.3,23.5-15.2,42.8-39,42.8l-1311-4.2c-23.9,0-43.6-19.7-43.9-43.2L47,71.2
		C46.6,47.3,65.2,36,88.6,40.5L1338.3,275c23.5,4.5,35.6,23.1,38.3,46.6L1464.8,1158z"/>
</g>
<g>
	<g>
		
			<linearGradient id="SVGID_7_" gradientUnits="userSpaceOnUse" x1="18.1103" y1="1206.1184" x2="386.8645" y2="1206.1184" gradientTransform="matrix(3.7879 0 0 -3.7879 0 5685.606)">
			<stop  offset="1.052630e-02" style="stop-color:#E7E7E7"/>
			<stop  offset="0.3408" style="stop-color:#E4E4E4"/>
			<stop  offset="0.5679" style="stop-color:#DBDBDB"/>
			<stop  offset="0.7639" style="stop-color:#CDCDCD"/>
			<stop  offset="0.9414" style="stop-color:#BBBABA"/>
			<stop  offset="0.9947" style="stop-color:#B4B4B4"/>
		</linearGradient>
		<path fill="url(#SVGID_7_)" d="M1455.7,1072.3L68.6,1033l2.7,120.5c0.4,23.9,20.1,43.2,43.9,43.2l1311,4.2
			c23.9,0,41.3-19.3,39-42.8L1455.7,1072.3z"/>
	</g>
	<g>
		<path fill="#1A1A1A" d="M1376.1,321.6c-2.3-23.5-14.8-42.4-38.3-46.6L88.3,40.5c-23.5-4.5-42,7.2-41.7,30.7l21.6,961.4
			l1387.5,39.4L1376.1,321.6z M106.4,98.1L1333,321.2l70.5,689.8L128,960.6L106.4,98.1z"/>
	</g>
	<polygon fill="#FFFFFF" points="1403.8,1011 128,960.6 106.4,98.1 1333,321.2 	"/>
</g>
<g>
	
		<linearGradient id="SVGID_8_" gradientUnits="userSpaceOnUse" x1="102.1513" y1="1229.6807" x2="140.7432" y2="1473.3406" gradientTransform="matrix(3.7879 0 0 -3.7879 0 5685.606)">
		<stop  offset="0" style="stop-color:#FFFFFF;stop-opacity:0.1"/>
		<stop  offset="1" style="stop-color:#FFFFFF;stop-opacity:0.3"/>
	</linearGradient>
	<path fill="url(#SVGID_8_)" d="M489.8,115.9L88.3,40.5c-23.5-4.5-42,7.2-41.7,30.7l21.6,961.4l806.8,22.7L489.8,115.9z"/>
</g>
<g>
	<g>
		<polygon fill="#DCE2E4" points="296.2,334.5 303.4,774.2 1256.8,831.1 1214.4,464 		"/>
		<path stroke="#FFFFFF" stroke-width="0.25" stroke-miterlimit="10" d="M1204.2,376.5c-0.4-1.9-2.3-3.8-4.5-4.2L298.1,225.8
			c-2.3-0.4-4.2,1.1-3.8,3.8l1.9,104.9L1214.4,464L1204.2,376.5z"/>
		<g>
			<path fill="#FFFFFF" d="M1069.7,413.3l-20.1-3l-0.4-3l7.2-6.4c2.3-1.9,3.8-3.4,4.2-4.2c0.8-0.8,1.1-1.9,1.5-2.7
				c0.4-0.8,0.4-1.9,0.4-2.7c0-1.5-0.8-2.7-1.9-3.8c-1.1-1.1-2.3-1.5-4.2-1.9c-1.1,0-2.3,0-3.4,0c-1.1,0.4-2.3,0.8-3.4,1.5l-2.3-2.7
				c2.7-1.9,5.7-2.3,9.1-1.9c2.7,0.4,5.3,1.5,6.8,3c1.9,1.5,2.7,3.4,3,5.7c0,1.1,0,2.3-0.4,3.4s-1.1,2.3-1.9,3
				c-0.8,1.1-2.3,2.3-4.5,4.2l-5.7,4.9l0,0l15.5,2.3L1069.7,413.3z"/>
			<path fill="#FFFFFF" d="M1095.1,410.2l-4.5-0.8l0.8,6.4l-3.8-0.4l-0.8-6.4l-14.8-2.3l-0.4-3l12.5-17l3.8,0.8l1.9,18.6l4.5,0.8
				L1095.1,410.2z M1086.4,406.1l-0.8-8.7c0-1.9-0.4-3.8-0.4-6.1l0,0c0,0.4-0.4,0.8-0.8,1.5c-0.4,0.8-0.8,1.1-0.8,1.5l-8,10.6
				L1086.4,406.1z"/>
			<path fill="#FFFFFF" d="M1097.3,408l-0.4-3l10.2,1.5l0.4,3L1097.3,408z"/>
			<path fill="#FFFFFF" d="M1111,426.1c-1.1,0-2.3-0.4-3.4-1.1l-0.4-3c1.1,0.4,1.9,0.8,3,0.8c1.5,0.4,2.3,0,3-0.8s0.8-1.9,0.8-3
				l-3-27.7l3.8,0.4l3,27.7c0.4,2.7-0.4,4.5-1.5,5.7C1115.5,426.1,1113.6,426.5,1111,426.1z"/>
			<path fill="#FFFFFF" d="M1145.5,423.9l-4.5-9.1l-12.1-1.9l-2.7,8l-3.8-0.4l9.1-26.1l3.4,0.4l15.2,29.5L1145.5,423.9z
				 M1139.4,411.4l-4.2-9.1l-1.9-4.5c-0.4,1.5-0.4,2.7-0.8,4.2l-2.7,8L1139.4,411.4z"/>
			<path fill="#FFFFFF" d="M1177.7,428.4l-4.5-0.8l-18.9-25.4l0,0l0.4,1.5c0.4,2.3,0.8,4.2,0.8,6.1l1.9,15.5l-3.4-0.4l-3-27.7
				l4.5,0.8l1.1,1.5l11.7,15.5l6.1,8.3l0,0c0-0.4-0.4-1.5-0.4-3.4c-0.4-1.9-0.4-3-0.8-4.2l-1.9-15.5l3.4,0.4L1177.7,428.4z"/>
		</g>
		<path fill="none" stroke="#414141" stroke-width="0.5" stroke-miterlimit="10" stroke-dasharray="3,3" d="M299.6,536l934.5,96.2
			L299.6,536z"/>
		<g>
			<path fill="#565D6C" d="M353.8,440.5l-3.8-0.4l-0.4-22.7c0-1.9,0-3.8,0-5.7c-0.4,0.4-0.8,0.8-1.1,1.1c-1.5,1.1-3,2.3-4.5,3.4
				l-1.9-3l8.3-5.7l3,0.4L353.8,440.5z"/>
			<path fill="#565D6C" d="M374.6,410.6c2.7,0.4,4.9,1.5,6.8,3c1.5,1.5,2.7,3.8,2.7,6.1c0,1.5-0.4,3-1.1,4.2c-0.8,1.1-2.3,2.3-4.5,3
				c2.7,1.5,4.2,3,5.3,4.5c1.1,1.5,1.5,3,1.5,4.9c0,2.7-0.8,4.5-2.7,6.1c-1.9,1.5-4.2,1.9-7.2,1.5c-3.4-0.4-5.7-1.5-7.6-3.4
				s-2.7-4.2-3-6.8c0-3.8,1.9-6.4,6.1-8c-1.9-1.5-3.4-2.7-4.2-4.2c-0.8-1.5-1.5-3-1.5-4.5c0-2.3,0.8-4.2,2.3-5.3
				C369.7,410.6,372,410.2,374.6,410.6z M368.9,434.1c0,1.9,0.8,3,1.9,4.2c1.1,1.1,2.7,1.9,4.9,2.3c1.9,0.4,3.4,0,4.5-0.8
				s1.5-2.3,1.5-3.8s-0.8-2.7-1.9-4.2c-1.1-1.1-3-2.7-5.7-3.8c-1.9,0.8-3.4,1.5-4.5,2.7C369.3,431.4,368.9,432.6,368.9,434.1z
				 M374.6,413.6c-1.5-0.4-3,0-3.8,0.8c-1.1,0.8-1.5,1.9-1.5,3.4c0,0.8,0.4,1.9,0.8,2.7s1.1,1.5,1.5,2.3c0.8,0.8,1.9,1.5,3.4,2.3
				c1.9-0.8,3.4-1.5,4.2-2.3s1.1-1.9,1.1-3.4s-0.4-2.7-1.5-3.8C377.7,414.4,376.5,414,374.6,413.6z"/>
			<path fill="#565D6C" d="M399.2,413.6c2.7,0.4,4.9,1.5,6.8,3c1.5,1.5,2.7,3.4,2.7,6.1c0,1.5-0.4,3-1.1,4.2c-0.8,1.1-2.3,2.3-4.5,3
				c2.7,1.5,4.2,3,5.3,4.5c1.1,1.5,1.5,3,1.5,4.9c0,2.7-0.8,4.5-2.7,6.1c-1.9,1.5-4.2,1.9-7.2,1.5c-3.4-0.4-5.7-1.5-7.6-3.4
				s-2.7-4.2-3-6.8c0-3.8,1.9-6.4,6.1-8c-1.9-1.5-3.4-2.7-4.2-4.2c-0.8-1.5-1.5-3-1.5-4.5c0-2.3,0.8-4.2,2.3-5.3
				C394.3,413.6,396.6,413.3,399.2,413.6z M393.6,437.5c0,1.9,0.8,3,1.9,4.2c1.1,1.1,2.7,1.9,4.9,1.9c1.9,0.4,3.4,0,4.5-0.8
				s1.5-2.3,1.5-3.8s-0.8-2.7-1.9-4.2c-1.1-1.1-3-2.7-5.7-3.8c-1.9,0.8-3.4,1.5-4.5,2.7C393.9,434.8,393.6,436,393.6,437.5z
				 M399.2,417c-1.5-0.4-3,0-3.8,0.8c-1.1,0.8-1.5,1.9-1.5,3.4c0,0.8,0.4,1.9,0.8,2.7c0.4,0.8,1.1,1.5,1.5,2.3
				c0.8,0.8,1.9,1.5,3.4,2.3c1.9-0.8,3.4-1.5,4.2-2.3s1.1-1.9,1.1-3.4s-0.8-2.7-1.5-3.8C402.3,417.8,401.1,417,399.2,417z"/>
			<path fill="#565D6C" d="M420.5,443.9l0.4,0.4c-0.8,3-1.9,6.4-3.4,10.2l-2.7-0.4c0.8-3.4,1.5-7.2,1.9-10.6L420.5,443.9z"/>
			<path fill="#565D6C" d="M426.1,436.4c-0.4-12.5,4.2-18.2,13.6-17c1.5,0.4,3,0.4,3.8,0.8v3.4c-1.1-0.4-2.3-0.8-3.8-1.1
				c-3.4-0.4-5.7,0.4-7.6,2.3c-1.5,1.9-2.7,4.9-2.7,9.5h0.4c1.5-2.3,3.8-3.4,7.2-2.7c2.7,0.4,4.9,1.5,6.4,3.4s2.7,4.5,2.7,7.6
				c0,3.4-0.8,5.7-2.3,7.6c-1.5,1.5-4.2,2.3-7.2,1.9c-2.3-0.4-3.8-1.1-5.7-2.3c-1.5-1.1-3-3-3.8-5.3
				C426.5,441.7,426.1,439,426.1,436.4z M436.7,448.5c1.9,0.4,3.4-0.4,4.5-1.5s1.5-3,1.5-5.3s-0.8-3.8-1.5-5.3
				c-1.1-1.1-2.7-1.9-4.5-2.3c-1.1,0-2.3,0-3.4,0.4s-1.9,1.1-2.3,1.9c-0.8,0.8-0.8,1.9-0.8,2.7c0,1.5,0.4,3,1.1,4.2
				c0.8,1.5,1.5,2.3,2.3,3.4C434.5,447.7,435.6,448.1,436.7,448.5z"/>
			<path fill="#565D6C" d="M471.2,455.7l-20.5-2.7v-3.4l8-7.6c2.3-2.3,3.8-3.8,4.5-4.9c0.8-1.1,1.1-1.9,1.5-3s0.4-1.9,0.4-3
				c0-1.5-0.8-3-1.5-4.2c-1.1-1.1-2.3-1.9-4.2-1.9c-1.1,0-2.3,0-3.4,0c-1.1,0.4-2.3,0.8-3.8,1.9l-2.3-3c2.7-2.3,6.1-3,9.5-2.7
				c3,0.4,5.3,1.5,6.8,3c1.9,1.9,2.7,3.8,2.7,6.4c0,1.5,0,2.7-0.8,3.8c-0.4,1.1-1.1,2.3-1.9,3.8c-0.8,1.1-2.7,3-4.9,4.9l-6.1,5.7
				l0,0l15.5,1.9L471.2,455.7z"/>
			<path fill="#565D6C" d="M493.9,434.5c0,1.9-0.4,3.8-1.5,4.9s-2.7,1.9-4.5,1.9l0,0c2.3,0.8,4.2,1.5,5.7,3c1.1,1.5,1.9,3.4,1.9,5.3
				c0,3-0.8,5.3-2.7,6.4c-1.9,1.5-4.9,1.9-8.7,1.5c-1.5-0.4-3-0.4-4.5-0.8s-2.7-1.1-4.2-1.9V451c1.5,0.8,2.7,1.5,4.2,2.3
				c1.5,0.4,3,0.8,4.2,1.1c5.3,0.8,7.6-1.1,7.6-5.3c0-3.8-3-6.1-8.7-6.8l-3-0.4v-3.4l3,0.4c2.3,0.4,4.2,0,5.7-0.8
				c1.1-0.8,1.9-2.3,1.9-4.2c0-1.5-0.8-2.7-1.5-3.8c-1.1-1.1-2.3-1.5-4.2-1.9c-1.5,0-2.7,0-3.8,0c-1.1,0.4-2.3,0.8-3.8,1.5l-1.9-3
				c1.1-0.8,2.7-1.5,4.2-1.9s3.4-0.4,5.3,0c3,0.4,5.3,1.5,7.2,3C492.8,429.9,493.6,431.8,493.9,434.5z"/>
		</g>
		<g>
			<path fill="#565D6C" d="M719.3,468.2c3,0.4,5.7,1.5,7.6,3.4c1.9,1.9,3,4.2,3,6.8c0,3-0.8,5.7-2.7,7.2s-4.5,2.3-8.3,1.5
				c-3.4-0.4-6.1-1.1-8-2.7l-0.4-3.4c1.1,0.8,2.3,1.5,3.8,1.9s3,0.8,4.2,1.1c2.3,0.4,4.2,0,5.7-1.1c1.1-1.1,1.9-2.7,1.5-4.5
				c-0.4-4.2-3-6.4-8-7.2c-1.5-0.4-3.4-0.4-5.3,0l-1.9-1.5l0.4-14.4l15.5,1.9l0.4,3.4l-12.1-1.5l-0.4,8.7
				C716.3,467.8,717.8,468.2,719.3,468.2z"/>
			<path fill="#565D6C" d="M740.9,484.5l0.4,0.4c-0.8,3-1.5,6.1-3,9.5l-2.7-0.4c0.8-3.4,1.1-6.8,1.5-10.2L740.9,484.5z"/>
			<path fill="#565D6C" d="M767,492.4l-20.5-2.7v-3l7.6-6.8c2.3-2.3,3.8-3.8,4.5-4.5c0.8-0.8,1.1-1.9,1.5-2.7c0.4-0.8,0.4-1.9,0.4-3
				c0-1.5-0.8-3-1.5-3.8c-1.1-1.1-2.3-1.5-4.2-1.9c-1.1,0-2.3,0-3.4,0c-1.1,0.4-2.3,0.8-3.8,1.9l-2.3-2.7c2.7-1.9,5.7-2.7,9.1-2.3
				c3,0.4,5.3,1.5,6.8,3c1.9,1.5,2.7,3.8,3,6.1c0,1.1,0,2.7-0.4,3.8c-0.4,1.1-1.1,2.3-1.9,3.4c-0.8,1.1-2.3,2.7-4.5,4.5l-6.1,5.3
				l0,0l15.7,2L767,492.4L767,492.4z"/>
			<path fill="#565D6C" d="M792.8,489l-4.5-0.4l0.4,6.8l-3.8-0.4l-0.4-6.8l-14.8-1.9l-0.4-3l13.3-18.6l3.8,0.4l1.1,20.1l4.5,0.4
				L792.8,489z M784.5,484.5l-0.8-9.5c0-1.9-0.4-4.2-0.4-6.4H783c0,0.4-0.4,0.8-0.8,1.5c-0.4,0.8-0.8,1.1-0.8,1.5l-8.3,11.7
				L784.5,484.5z"/>
			<path fill="#565D6C" d="M815.9,483.7c0.4,5.3-0.4,9.1-1.9,11.4s-4.2,3.4-7.6,3c-3.4-0.4-6.1-1.9-8-4.9c-1.9-2.7-3-6.8-3.4-11.7
				c-0.4-5.3,0.4-9.1,1.9-11.4s4.2-3.4,7.6-2.7c3.4,0.4,6.1,1.9,8,4.9C814.4,474.6,815.5,478.8,815.9,483.7z M799.2,481.4
				c0.4,4.2,1.1,7.6,2.3,9.5c1.1,1.9,2.7,3,4.9,3.4c2.3,0.4,3.8-0.4,4.5-2.3c0.8-1.9,1.1-4.9,0.8-9.1s-1.1-7.2-2.3-9.5
				c-1.1-2.3-3-3.4-4.9-3.4c-2.3-0.4-3.8,0.4-4.5,2.3C799.2,474.2,798.9,477.3,799.2,481.4z"/>
		</g>
		<g>
			<path fill="#565D6C" d="M913.3,487.9c0,1.9-0.4,3.4-1.1,4.5c-1.1,1.1-2.7,1.5-4.5,1.9l0,0c2.7,0.8,4.5,1.5,5.7,3
				c1.1,1.5,1.9,3,2.3,4.9c0.4,2.7-0.8,4.9-2.7,6.1s-4.9,1.5-8.7,1.1c-1.5-0.4-3-0.4-4.5-0.8s-2.7-1.1-4.2-1.9l-0.4-3.4
				c1.5,0.8,2.7,1.5,4.2,1.9s3,0.8,4.5,1.1c5.3,0.8,7.6-1.1,7.2-4.9c-0.4-3.4-3.4-5.7-9.1-6.1l-3-0.4l-0.4-3l3,0.4
				c2.3,0.4,4.2,0,5.7-0.8c1.1-0.8,1.9-2.3,1.9-3.8s-0.8-2.7-1.9-3.4c-1.1-0.8-2.3-1.5-4.2-1.5c-1.5,0-2.7,0-3.8,0
				c-1.1,0.4-2.3,0.8-3.8,1.5l-2.3-2.7c1.1-0.8,2.7-1.5,4.2-1.5c1.5-0.4,3.4-0.4,5.3,0c3,0.4,5.3,1.1,7.2,2.7
				C912.1,484.1,913.3,485.6,913.3,487.9z"/>
			<path fill="#565D6C" d="M942,507.2l-4.5-0.4l0.4,6.4l-3.8-0.4l-0.4-6.4l-14.8-1.9l-0.4-3l12.9-17.8l3.8,0.4l1.5,19.3l4.5,0.4
				L942,507.2z M933.3,503l-0.8-9.1c0-1.9-0.4-3.8-0.4-6.4l0,0c0,0.4-0.4,0.8-0.8,1.5c-0.4,0.8-0.8,1.1-0.8,1.5l-8.3,11.4L933.3,503
				z"/>
			<path fill="#565D6C" d="M964.8,501.9c0.4,4.9,0,8.7-1.5,11c-1.5,2.3-3.8,3-7.6,2.7c-3.4-0.4-6.1-1.9-8-4.5
				c-1.9-2.7-3-6.4-3.4-11.4s0-8.7,1.5-11s3.8-3,7.6-2.7c3.4,0.4,6.1,1.9,8,4.9C963.3,493.2,964.4,497,964.8,501.9z M948.1,500
				c0.4,4.2,1.1,7.2,2.3,9.5c1.1,1.9,3,3,4.9,3.4c2.3,0.4,3.8-0.4,4.5-2.3s1.1-4.9,0.8-8.7c-0.4-4.2-1.1-7.2-2.3-9.1
				c-1.1-1.9-3-3-5.3-3.4s-3.8,0.4-4.5,2.3C948.1,492.8,947.7,495.8,948.1,500z"/>
		</g>
		<g>
			<path fill="#565D6C" d="M1102.3,532.2l-20.5-2.3l-0.4-3l7.2-6.4c2.3-1.9,3.8-3.4,4.5-4.2c0.8-0.8,1.1-1.9,1.5-2.7s0.4-1.9,0.4-3
				c0-1.5-0.8-2.7-1.9-3.8c-1.1-1.1-2.3-1.5-4.2-1.9c-1.1,0-2.3,0-3.4,0c-1.1,0.4-2.3,0.8-3.8,1.5l-2.3-2.7c2.7-1.9,5.7-2.7,9.1-2.3
				c3,0.4,5.3,1.1,7.2,3c1.9,1.5,3,3.4,3,5.7c0,1.1,0,2.3-0.4,3.4s-1.1,2.3-1.9,3.4c-0.8,1.1-2.3,2.7-4.5,4.2l-6.1,4.9l0,0l15.5,1.9
				L1102.3,532.2z"/>
			<path fill="#565D6C" d="M1126.9,535.2l-20.5-2.3l-0.4-3l7.2-6.4c2.3-1.9,3.8-3.4,4.2-4.2c0.8-0.8,1.1-1.9,1.5-2.7
				s0.4-1.9,0.4-2.7c0-1.5-0.8-2.7-1.9-3.8c-1.1-1.1-2.3-1.5-4.2-1.9c-1.1,0-2.3,0-3.4,0c-1.1,0.4-2.3,0.8-3.8,1.5l-2.3-2.7
				c2.7-1.9,5.7-2.7,9.1-2.3c3,0.4,5.3,1.1,7.2,2.7s3,3.4,3,5.7c0,1.1,0,2.3-0.4,3.4c-0.4,1.1-1.1,2.3-1.9,3.4
				c-0.8,1.1-2.3,2.7-4.5,4.2l-5.7,4.9l0,0l15.5,1.9L1126.9,535.2z"/>
			<path fill="#565D6C" d="M1144.7,537.1l-3.8-0.4L1139,517c0-1.9-0.4-3.4-0.4-4.9c-0.4,0.4-0.8,0.8-1.1,0.8c-1.1,0.8-2.7,1.9-4.2,3
				l-2.3-2.7l7.6-4.9l3,0.4L1144.7,537.1z"/>
		</g>
		<g>
			<path fill="#979EA5" d="M359.8,462.9c0,3.4-0.8,6.1-2.3,8s-3.8,2.7-6.8,2.3s-5.3-1.5-7.2-3.8c-1.5-2.3-2.7-4.9-2.7-8.7
				c0-3.4,0.8-6.1,2.3-8s3.8-2.3,6.8-1.9s5.3,1.5,7.2,3.8C358.7,456.4,359.8,459.5,359.8,462.9z M343.6,461c0,3,0.8,5.3,1.9,6.8
				s3,2.7,4.9,3c2.3,0.4,3.8-0.4,4.9-1.5c1.1-1.5,1.5-3.4,1.5-6.4s-0.8-5.3-1.9-6.8s-3-2.7-4.9-3c-2.3-0.4-3.8,0.4-4.9,1.5
				C343.9,456.1,343.6,458,343.6,461z"/>
			<path fill="#979EA5" d="M361,452.3l2.7,0.4l4.9,14.4c0.8,1.9,1.1,3.4,1.5,4.9c0.4-1.1,0.8-2.7,1.1-4.5l4.2-13.3l2.7,0.4
				l-6.8,20.8l-2.7-0.4L361,452.3z"/>
			<path fill="#979EA5" d="M393.2,478l-11.4-1.5l-0.4-21.6l11.4,1.5v2.3l-8.7-1.1v6.8l8.3,1.1v2.3l-8.3-1.1l0.4,7.6l9.1,1.1
				L393.2,478z"/>
			<path fill="#979EA5" d="M400,469.7l0.4,8.7l-2.7-0.4l-0.4-21.6l5.7,0.8c2.7,0.4,4.5,1.1,5.7,2.3c1.1,1.1,1.9,2.7,1.9,4.9
				c0,3-1.1,4.5-3.8,5.3l6.1,10.2l-3-0.4l-5.3-9.5L400,469.7z M400,467.4l3,0.4c1.5,0.4,3,0,3.8-0.8s1.1-1.5,1.1-3s-0.4-2.3-1.1-3
				c-0.8-0.8-1.9-1.1-3.8-1.5l-3-0.4V467.4z"/>
			<path fill="#979EA5" d="M428.4,482.2l-2.7-6.8l-8.3-1.1l-2.3,6.4l-2.7-0.4l7.6-20.5l2.3,0.4l8.7,22.3L428.4,482.2z M425,472.7
				l-2.7-6.8l-1.1-3.4c-0.4,1.1-0.4,2.3-0.8,3l-2.3,6.1L425,472.7z"/>
			<path fill="#979EA5" d="M434.1,483l-0.8-21.2l2.7,0.4l0.8,18.9l9.1,1.1v2.3L434.1,483z"/>
			<path fill="#979EA5" d="M449.2,484.8l-0.8-21.2l2.7,0.4l0.8,18.9l9.1,1.1v2.3L449.2,484.8z"/>
		</g>
		<g>
			<path fill="#979EA5" d="M731.1,518.2l-2.7-0.4l-4.9-13.6c-0.8-1.9-1.1-3.4-1.1-4.2c0,1.1-0.4,2.3-0.8,3.8l-3,12.9l-2.7-0.4
				l-6.4-20.8l2.7,0.4l3.8,12.9c0.4,1.5,1.1,3.4,1.1,4.9c0-1.5,0.4-3,0.8-4.9l3-11.7l2.7,0.4l4.5,12.9c0.8,1.5,1.1,3.4,1.5,4.9
				c0-1.1,0.4-2.7,0.8-4.5l2.3-12.1l2.7,0.4L731.1,518.2z"/>
			<path fill="#979EA5" d="M751.5,520.8l-11.4-1.5l-1.1-20.1l11.4,1.5v2.3l-9.1-1.1l0.4,6.4l8.3,1.1v2.3l-8.3-1.1l0.4,7.2l9.1,1.1
				L751.5,520.8z"/>
			<path fill="#979EA5" d="M767.4,522.7l-11.4-1.5l-1.1-20.1l11.4,1.5v2.3l-8.7-1.1l0.4,6.4l8.3,1.1v2.3l-8.3-1.1l0.4,7.2l9.1,1.1
				v1.9H767.4z"/>
			<path fill="#979EA5" d="M787.1,525l-3-0.4l-8-10.6l-1.9,1.5l0.4,8l-2.7-0.4l-1.1-20.1l2.7,0.4l0.8,9.8l1.5-1.5l6.8-7.2l3,0.4
				l-7.6,7.6L787.1,525z"/>
			<path fill="#979EA5" d="M789.8,525l-1.1-20.1l2.7,0.4l1.1,17.8l9.1,1.1v2.3L789.8,525z"/>
			<path fill="#979EA5" d="M809.5,517.4l4.5-9.1l2.7,0.4l-6.1,11.4l0.4,7.6l-2.7-0.4l-0.4-7.6l-7.6-13.3l2.7,0.4L809.5,517.4z"/>
		</g>
		<g>
			<path fill="#979EA5" d="M903.4,528.4l4.5-9.1l2.7,0.4l-6.1,11l0.8,7.6l-2.7-0.4l-0.8-7.6l-8-12.9l2.7,0.4L903.4,528.4z"/>
			<path fill="#979EA5" d="M926.9,540.9l-11.4-1.1l-1.5-19.7l11.4,1.5v2.3l-9.1-1.1l0.4,6.1l8.3,1.1v2.3l-8.3-1.1l0.4,6.8l9.1,1.1
				L926.9,540.9z"/>
			<path fill="#979EA5" d="M942.8,537.5c0,1.5-0.4,3-1.5,3.8s-3,1.1-5.3,0.8c-2.3-0.4-4.5-0.8-5.7-1.5l-0.4-2.3
				c0.8,0.4,1.9,0.8,3,1.1c1.1,0.4,1.9,0.4,3,0.8c1.5,0,2.7,0,3.4-0.4c0.8-0.4,1.1-1.1,1.1-2.3c0-0.8-0.4-1.1-0.4-1.5
				c-0.4-0.4-0.8-0.8-1.5-1.5c-0.8-0.4-1.9-1.1-3-1.5c-1.9-0.8-3.4-1.9-4.2-2.7c-0.8-1.1-1.5-2.3-1.5-3.4c0-1.5,0.4-2.7,1.5-3.4
				s2.7-1.1,4.5-0.8c1.9,0.4,4.2,0.8,5.7,1.9l-0.8,1.9c-1.9-0.8-3.4-1.5-4.9-1.5c-1.1,0-2.3,0-2.7,0.4c-0.8,0.4-0.8,1.1-0.8,1.9
				s0.4,1.1,0.4,1.5c0.4,0.4,0.8,0.8,1.5,1.1c0.8,0.4,1.5,0.8,3,1.5c1.5,0.8,2.7,1.5,3.4,1.9c0.8,0.8,1.5,1.1,1.9,1.9
				C942.4,535.6,942.8,536.4,942.8,537.5z"/>
			<path fill="#979EA5" d="M953.8,543.9l-2.7-0.4l-1.5-17.4l-6.4-0.8V523l15.5,1.9v2.3l-6.4-0.8L953.8,543.9z"/>
			<path fill="#979EA5" d="M975,546.2l-11.7-1.1l-1.5-19.3l11.4,1.5v2.3l-9.1-1.1l0.4,6.1l8.3,1.1v2.3l-8.3-1.1l0.8,6.8l9.1,1.1
				L975,546.2z"/>
			<path fill="#979EA5" d="M981.4,539l0.8,8l-2.7-0.4l-1.5-19.3l5.7,0.8c2.7,0.4,4.5,1.1,5.7,1.9c1.1,1.1,1.9,2.7,2.3,4.2
				c0.4,2.7-1.1,4.2-3.8,4.5l6.4,9.1l-3-0.4l-5.7-8.3L981.4,539z M981.1,537.1l3,0.4c1.5,0,3,0,3.4-0.4c0.8-0.4,1.1-1.5,0.8-2.7
				c0-1.1-0.8-2.3-1.5-2.7c-0.8-0.8-2.3-1.1-3.8-1.1l-3-0.4L981.1,537.1z"/>
			<path fill="#979EA5" d="M1013.3,540.9c0.4,3-0.4,5.3-2.3,6.8c-1.9,1.5-4.2,1.9-8,1.5l-5.7-0.8l-1.5-19.3l6.4,0.8
				c3,0.4,5.7,1.5,7.6,3.4C1011.7,535.2,1012.9,537.9,1013.3,540.9z M1010.6,540.5c-0.4-2.3-1.1-4.5-2.3-5.7
				c-1.5-1.5-3.4-2.3-6.1-2.7l-3.4-0.4l1.5,15.2l2.7,0.4C1008.3,547.7,1011,545.5,1010.6,540.5z"/>
			<path fill="#979EA5" d="M1031.4,552.7l-3-6.1l-8.3-0.8l-1.9,5.7l-2.7-0.4l6.4-18.2l2.3,0.4l9.8,20.1L1031.4,552.7z M1027.3,543.9
				l-3-6.1l-1.1-3c0,1.1-0.4,1.9-0.8,2.7l-1.9,5.7L1027.3,543.9z"/>
			<path fill="#979EA5" d="M1040.5,543.9l4.5-8.7l2.7,0.4l-5.7,11l0.8,7.2l-2.7-0.4l-0.8-7.2l-8-12.5l2.7,0.4L1040.5,543.9z"/>
		</g>
		<g>
			<path fill="#979EA5" d="M1091.7,559.1l-2.7-0.4l-1.5-16.7l-6.4-0.8l-0.4-2.3l15.5,1.9l0.4,2.3l-6.4-0.8L1091.7,559.1z"/>
			<path fill="#979EA5" d="M1118.2,552.7c0.4,3-0.4,5.3-1.9,6.8s-3.8,2.3-6.8,1.9c-3-0.4-5.3-1.5-7.2-3.4c-1.9-1.9-3-4.5-3-7.6
				c-0.4-3,0.4-5.3,1.9-6.8s3.8-1.9,6.8-1.9c3,0.4,5.3,1.5,7.2,3.4C1116.7,547.3,1117.8,549.6,1118.2,552.7z M1101.9,550.8
				c0.4,2.7,1.1,4.5,2.3,6.1s3,2.3,5.3,2.7s3.8-0.4,4.9-1.5s1.5-3,1.1-5.7s-1.1-4.5-2.3-5.7c-1.1-1.5-3-2.3-5.3-2.7
				s-3.8,0.4-4.9,1.5C1101.9,546.6,1101.5,548.5,1101.9,550.8z"/>
			<path fill="#979EA5" d="M1139.4,554.9c0.4,3-0.4,5.3-1.9,6.8s-4.2,1.9-8,1.5l-5.7-0.8l-1.9-18.6l6.4,0.8c3,0.4,5.7,1.5,7.6,3.4
				C1137.9,549.6,1139,551.9,1139.4,554.9z M1136.4,554.5c-0.4-2.3-1.1-4.2-2.7-5.7c-1.5-1.5-3.4-2.3-6.1-2.7l-3.4-0.4l1.5,14.8
				l2.7,0.4C1134.5,561.7,1137.1,559.5,1136.4,554.5z"/>
			<path fill="#979EA5" d="M1157.6,566.3l-3-6.1l-8.3-0.8l-1.9,5.7l-2.7-0.4l6.1-17.8l2.3,0.4l10.2,19.7L1157.6,566.3z M1153.4,558
				l-3-6.1l-1.1-3c0,1.1-0.4,1.9-0.8,2.7l-1.9,5.3L1153.4,558z"/>
			<path fill="#979EA5" d="M1166.7,558l4.5-8.3l2.7,0.4l-5.7,10.6l0.8,7.2l-2.7-0.4l-0.8-7.2l-8-12.1l3,0.4L1166.7,558z"/>
		</g>
		<path stroke="#FFFFFF" stroke-width="0.25" stroke-miterlimit="10" d="M304.9,881.1c0,2.3,1.9,4.5,4.2,4.5l953.8,38.3
			c2.3,0,4.2-1.5,3.8-3.4l-11-98.5l-952.3-58.7L304.9,881.1z"/>
		<g>
			<g>
				<path fill="#FFFFFF" d="M358.3,836c0,2.3-0.8,4.2-2.7,5.7c-1.5,1.1-4.2,1.9-7.2,1.9c-3.4,0-5.7-0.8-7.6-1.9v-3.4
					c1.1,0.8,2.3,1.1,3.8,1.5s2.7,0.8,3.8,0.8c1.9,0,3.4-0.4,4.5-1.1c1.1-0.8,1.5-1.9,1.5-3.4c0-0.8-0.4-1.9-0.8-2.3
					c-0.4-0.8-1.1-1.1-1.9-1.9s-2.3-1.1-4.2-1.9c-2.7-1.1-4.5-2.3-5.3-3.8c-1.1-1.5-1.5-3-1.9-4.9c0-2.3,0.8-3.8,2.3-4.9
					c1.5-1.1,3.8-1.9,6.4-1.5c2.7,0,5.3,0.8,7.6,1.9l-1.1,3c-2.3-1.1-4.5-1.9-6.4-1.9c-1.5,0-3,0-3.8,0.8s-1.5,1.5-1.1,3
					c0,0.8,0.4,1.5,0.8,2.3s0.8,1.1,1.9,1.9c0.8,0.4,1.9,1.1,3.8,1.9s3.4,1.9,4.5,2.7s1.9,1.5,2.3,2.7
					C358,833.3,358.3,834.5,358.3,836z"/>
				<path fill="#FFFFFF" d="M384.1,817l0.4,18.2c0,3-0.8,5.7-2.7,7.2c-1.9,1.9-4.5,2.7-8,2.3c-3.4,0-6.1-1.1-7.6-3
					c-1.9-1.9-2.7-4.5-3-7.6l-0.4-18.2l3.4,0.4l0.4,18.2c0,2.3,0.8,4.2,1.9,5.3s3,1.9,5.3,2.3c2.3,0,3.8-0.4,5.3-1.5
					c1.1-1.1,1.9-3,1.9-5.3l-0.4-18.2L384.1,817z"/>
				<path fill="#FFFFFF" d="M413.6,846.6l-4.2-0.4l-15.2-23.9l0,0v1.5c0.4,2.3,0.4,4.2,0.4,6.1l0.4,15.5h-3l-0.8-28l3.8,0.4l0.8,1.5
					l9.1,14.8l4.9,8l0,0c0-0.4,0-1.5-0.4-3.4c0-1.9-0.4-3.4-0.4-4.2l-0.4-15.5l3,0.4L413.6,846.6z"/>
			</g>
			<g>
				<path fill="#FFFFFF" d="M481.8,850l-9.8-24.6l0,0c0.4,1.9,0.4,4.5,0.4,7.6l0.4,16.7h-3L469,822l4.9,0.4l9.1,23.1l0,0l8-22
					l4.9,0.4l0.8,27.3h-3.4l-0.4-17c0-1.9,0-4.2,0-7.2l0,0l-8.3,23.5L481.8,850z"/>
				<path fill="#FFFFFF" d="M528,839c0,4.5-0.8,7.6-3,10.2c-2.3,2.3-5.3,3.4-9.1,3.4c-4.2-0.4-7.2-1.5-9.5-4.2s-3.4-6.1-3.8-10.6
					c0-4.5,0.8-8,3-10.2c2.3-2.3,5.3-3.4,9.1-3s7.2,1.5,9.5,4.2C526.5,831.1,527.7,834.5,528,839z M506.4,837.9
					c0,3.8,1.1,6.4,2.7,8.3c1.5,1.9,3.8,3,6.8,3s5.3-0.8,6.4-2.3c1.5-1.9,2.3-4.5,1.9-8.3c0-3.8-1.1-6.4-2.7-8.3s-3.8-3-6.8-3
					s-5.3,0.8-6.8,2.3C506.8,831.4,506.1,834.1,506.4,837.9z"/>
				<path fill="#FFFFFF" d="M556.1,854.2l-4.2-0.4l-15.5-23.5l0,0v1.5c0.4,2.3,0.4,4.2,0.4,6.1l0.4,15.2h-3l-1.1-27.3l4.2,0.4
					l0.8,1.5l9.5,14.4l4.9,7.6l0,0c0-0.4,0-1.5-0.4-3c0-1.9-0.4-3-0.4-3.8l-0.4-15.2h3L556.1,854.2z"/>
			</g>
			<g>
				<path fill="#FFFFFF" d="M624.6,857.6h-3.4l-1.1-23.9l-8.7-0.4v-3l20.5,1.1v3l-8.3-0.4L624.6,857.6z"/>
				<path fill="#FFFFFF" d="M656.8,832.6l0.8,17.4c0,3-0.8,5.3-2.7,7.2c-1.9,1.5-4.5,2.3-7.6,2.3c-3.4,0-6.1-1.1-8-3s-3-4.2-3-7.2
					l-0.8-17l3.4,0.4l0.8,17.4c0,2.3,0.8,3.8,1.9,5.3c1.1,1.1,3,1.9,5.3,1.9s3.8-0.4,5.3-1.5c1.1-1.1,1.5-2.7,1.5-4.9l-0.8-17.4
					L656.8,832.6z"/>
				<path fill="#FFFFFF" d="M680.7,860.2l-15.2-0.8l-1.1-26.5l15.2,0.8v3l-11.7-0.8l0.4,8.3l11,0.8v3l-11-0.8l0.4,9.5l11.7,0.8
					L680.7,860.2z"/>
			</g>
			<g>
				<path fill="#FFFFFF" d="M768.2,864.8h-3.4l-6.4-17.4c-0.8-2.7-1.5-4.2-1.5-5.3c0,1.5-0.4,3-1.1,5.3l-4.2,16.7h-3.4l-8.7-26.5
					l3.4,0.4l5.3,16.3c0.8,2.3,1.1,4.2,1.5,6.4c0-1.9,0.4-4.2,1.1-6.4l3.8-15.5l3.4,0.4l6.1,16.3c0.8,2.3,1.5,4.2,1.9,6.4
					c0-1.5,0.4-3.8,1.1-6.1l3.4-15.5h3.4L768.2,864.8z"/>
				<path fill="#FFFFFF" d="M794.7,865.9l-15.2-0.8L778,839l15.2,0.8v3l-11.7-0.8l0.4,8l11,0.4v3l-11-0.4l0.4,9.5l11.7,0.8
					L794.7,865.9z"/>
				<path fill="#FFFFFF" d="M822,854.2c0.4,4.2-0.8,7.6-3,9.5c-2.3,2.3-5.7,3-10.2,3l-7.6-0.4l-1.5-26.1l8.3,0.4
					c4.2,0.4,7.6,1.5,10.2,3.8C820.5,847,821.6,850,822,854.2z M818.2,854.2c-0.4-3.4-1.1-5.7-3-7.6c-1.9-1.9-4.5-2.7-8-3l-4.5-0.4
					l1.1,20.5h3.8C815.2,864,818.9,861,818.2,854.2z"/>
			</g>
			<g>
				<path fill="#FFFFFF" d="M891.3,870.5h-3.4l-1.5-22.7l-8.7-0.4l-0.4-2.7l20.5,1.1l0.4,2.7l-8.3-0.4L891.3,870.5z"/>
				<path fill="#FFFFFF" d="M925,872h-3.4l-1.1-12.1l-14-0.8l0.8,11.7h-3.4l-1.9-25.4h3.4l0.8,10.6l14,0.8l-0.8-10.6h3.4L925,872z"
					/>
				<path fill="#FFFFFF" d="M951.1,848.1l1.1,16.3c0.4,3-0.4,4.9-2.3,6.8c-1.9,1.5-4.2,2.3-7.6,2.3s-6.1-1.1-8-3s-3-4.2-3.4-6.8
					l-1.1-16.3h3.4l1.1,16.3c0,1.9,0.8,3.8,2.3,4.9c1.1,1.1,3,1.9,5.7,1.9c2.3,0,3.8-0.4,4.9-1.5c1.1-1.1,1.5-2.7,1.5-4.9l-1.1-16.3
					L951.1,848.1z"/>
			</g>
			<g>
				<path fill="#FFFFFF" d="M1031.8,876.9h-3.4l-2.3-25l15.2,0.8l0.4,2.7l-11.7-0.8l0.8,8.7l11,0.4l0.4,2.7l-11-0.4L1031.8,876.9z"
					/>
				<path fill="#FFFFFF" d="M1050.8,867.4l0.8,10.2h-3.4l-2.3-24.6l7.6,0.4c3.4,0,6.1,0.8,7.6,2.3c1.9,1.1,2.7,3,3,5.3
					c0.4,3.4-1.5,5.3-4.9,6.4l8.3,11.4h-4.2l-7.6-10.6L1050.8,867.4z M1050.4,864.8h4.2c2.3,0,3.8-0.4,4.9-1.1
					c1.1-0.8,1.5-1.9,1.1-3.4c0-1.5-0.8-2.7-1.9-3.4c-1.1-0.8-2.7-1.1-5.3-1.1h-3.8L1050.4,864.8z"/>
				<path fill="#FFFFFF" d="M1079.9,878.8l-9.8-0.4v-1.9l3-0.4l-1.9-19.7l-3.4-0.8v-1.9l9.8,0.4v1.9l-3,0.4l1.9,19.7l3.4,0.8V878.8z
					"/>
			</g>
			<g>
				<path fill="#FFFFFF" d="M1174.2,876.5c0.4,2.3-0.4,3.8-2.3,4.9c-1.5,1.1-3.8,1.5-7.2,1.5s-5.7-0.8-7.6-1.5l-0.4-3
					c1.1,0.4,2.7,0.8,3.8,1.1c1.5,0.4,2.7,0.4,3.8,0.4c1.9,0,3.4-0.4,4.5-0.8c1.1-0.8,1.5-1.5,1.1-2.7c0-0.8-0.4-1.5-0.8-1.9
					s-1.1-1.1-1.9-1.5s-2.3-1.1-4.2-1.9c-2.7-0.8-4.5-1.9-5.7-3c-1.1-1.1-1.9-2.7-1.9-4.5c-0.4-1.9,0.4-3.4,1.9-4.5s3.4-1.5,6.1-1.5
					s5.3,0.8,7.6,1.5l-0.8,2.7c-2.3-1.1-4.5-1.5-6.8-1.5c-1.5,0-3,0-3.8,0.8s-1.1,1.5-1.1,2.7c0,0.8,0.4,1.5,0.8,1.9
					s1.1,1.1,1.9,1.5s2.3,1.1,3.8,1.5c2.3,0.8,3.8,1.5,4.9,2.3s1.9,1.5,2.3,2.3C1173.5,874.2,1173.9,875.4,1174.2,876.5z"/>
				<path fill="#FFFFFF" d="M1197.3,883.7l-4.2-7.6l-11-0.4l-2.7,7.2h-3.4l8.3-23.9h3l13.3,24.6L1197.3,883.7z M1192,873.5l-3.8-7.6
					l-1.5-3.8c-0.4,1.1-0.4,2.7-0.8,3.4l-2.3,7.2L1192,873.5z"/>
				<path fill="#FFFFFF" d="M1212.1,884.5h-3.4l-2.3-21.2l-8.7-0.4l-0.4-2.7l20.5,0.8l0.4,2.7l-8.3-0.4L1212.1,884.5z"/>
			</g>
		</g>
		<g>
			<path fill="#00AEEF" stroke="#FFFFFF" stroke-width="0.25" stroke-miterlimit="10" d="M1242.4,704.9l-58.3,41.7
				c-3-1.9-6.8-3.4-10.6-3.8c-3.8-0.4-7.6,0.8-10.2,2.3l-114.8-86.4c0.8-1.9,1.1-4.2,1.1-6.4c-0.8-8.7-9.1-16.3-18.6-17.4
				c-9.5-0.8-16.7,5.7-15.9,14.4c0,0.4,0,0.8,0,1.1L917,671.2c-3.4-4.9-9.1-8.3-15.2-9.1c-7.2-0.8-12.9,3-15.2,8.7l-100.4-22.7
				c-1.5-8.3-9.1-15.9-18.2-16.7c-4.5-0.4-8.3,0.8-11,3l-108-80.7c0.8-1.9,0.8-3.8,0.8-5.7c-0.4-9.5-8.3-17.8-17.8-18.9
				c-9.5-1.1-16.7,5.7-16.3,15.2c0,3.8,1.5,7.6,3.8,10.6L514.4,679.2c-2.3-1.1-4.9-2.3-7.6-2.3c-5.7-0.4-10.6,1.9-13.6,6.1
				l-102.7-50.8c0-0.8,0-1.5,0-2.3c-0.4-9.8-8-18.6-17.4-19.7c-9.5-0.8-17,6.4-16.7,16.3c0,1.1,0,2.3,0.4,3.8l-55.3,23.1v9.8
				l58.7-24.6c3.4,4.2,8,7.2,13.3,7.6c5.7,0.4,10.6-1.9,13.6-6.1l102.7,50.4c0,0.8,0,1.5,0,2.3c0.4,9.8,8.3,18.2,17.8,18.9
				c9.5,0.8,17-6.4,16.7-16.3c0-3.8-1.5-7.6-3.8-10.6l105.3-124.2c2.3,1.1,4.9,2.3,7.6,2.7c4.2,0.4,8.3-0.8,11-3l108,80.7
				c-0.8,1.9-0.8,3.8-0.8,5.7c0.4,9.1,8.7,17.4,18.2,18.2c7.2,0.8,13.3-3,15.2-8.7l100.4,22.7c1.5,8.3,9.5,15.5,18.2,15.9
				c9.5,0.8,16.7-5.7,15.9-14.8c0-0.4,0-0.8,0-1.1l98.1-20.8c3.4,4.9,9.1,8.3,15.5,8.7c3.8,0.4,7.2-0.4,10.2-2.3l114.8,86.4
				c-0.8,1.9-1.1,4.2-1.1,6.4c0.8,8.7,9.5,15.9,18.9,16.7c9.5,0.8,16.7-5.7,15.9-14.4c-0.4-2.3-1.1-4.5-2.7-6.8l53.4-38.3
				L1242.4,704.9z M373.9,637.1c-1.9,0-3.8-1.1-5.3-2.3c-2.3-1.9-3.8-4.5-3.8-8v-0.4c0-4.9,3.8-8.3,8.7-8c4.5,0.4,8.3,4.5,9.1,9.1
				c0,0.4,0,0.8,0,1.1c0,2.7-1.1,5.3-3,6.8C378,636.7,376.1,637.5,373.9,637.1z M516.7,694.7c0,4.9-3.8,8.7-8.7,8.3
				c-4.5-0.4-8.3-4.2-9.1-8.7c0-0.4,0-0.8,0-1.1c0-2.7,1.1-5.3,3-6.4c1.5-1.1,3.4-1.9,5.7-1.5c0.8,0,1.1,0,1.9,0.4
				c3,0.8,5.3,3,6.8,6.1C516.3,692.4,516.7,693.6,516.7,694.7z M633.3,554.9c-0.8,0-1.1,0-1.9-0.4c-3-0.8-5.3-3-6.8-6.1
				c-0.4-1.1-0.8-2.3-0.8-3.4c-0.4-4.9,3.4-8.3,8.3-8c4.9,0.4,9.1,4.9,9.1,9.8c0,0.4,0,0.8,0,0.8c0,3-1.9,5.3-4.2,6.4
				C636.4,554.9,634.8,555.3,633.3,554.9z M770.1,656.4c-4.9-0.4-9.1-4.5-9.5-9.5c0-0.4,0-0.8,0-0.8c0-3,1.9-5.3,4.2-6.1
				c1.1-0.4,2.7-0.8,4.2-0.8c3.8,0.4,7.2,3,8.7,6.4c0.4,0.8,0.8,1.9,0.8,3c0,1.9-0.4,3.8-1.5,4.9
				C775.4,655.7,773.1,656.8,770.1,656.4z M904.2,686.4c-3.8-0.4-7.2-3-8.7-6.1c-0.4-0.8-0.8-1.9-0.8-3c0-1.9,0.4-3.4,1.5-4.9
				c1.5-1.9,3.8-3,6.8-2.7c2.3,0.4,4.5,1.1,6.4,3c1.9,1.5,3,3.8,3,6.1c0,0.4,0,1.1,0,1.5C911.7,684.1,908.3,686.7,904.2,686.4z
				 M1033.3,659.1c-2.3-0.4-4.5-1.1-6.4-3c-1.9-1.5-3-3.8-3-6.1c0-0.4,0-1.1,0-1.5c0.4-3.8,3.8-6.4,8-5.7c4.9,0.4,9.1,4.5,9.5,9.1
				c0,0.4,0,1.1,0,1.5c-0.4,2.7-2.3,4.5-4.5,5.3C1036,659.1,1034.8,659.1,1033.3,659.1z M1184.1,759.1c0.4,4.5-3,7.6-8.3,7.2
				c-4.9-0.4-9.5-4.2-9.8-8.7c0-0.4,0-1.1,0-1.5c0.4-2.7,2.3-4.5,4.5-5.3c1.1-0.4,2.3-0.4,3.4-0.4s2.3,0.4,3.4,0.8
				c3,1.1,5.3,3.4,6.1,6.1C1184.1,758,1184.1,758.3,1184.1,759.1z"/>
		</g>
	</g>
	<g>
		<path fill="#FFFFFF" d="M360.2,270.1l15.5,2.7v5.7l-14-2.3c-0.8,0-1.5,0.4-1.5,1.1v5.7l11.4,1.9v5.7l-11.4-1.9l0.4,14.4l-6.1-0.8
			l-0.8-26.5C354.2,272,356.8,269.7,360.2,270.1z"/>
		<path fill="#FFFFFF" d="M385.6,307.2l-6.1-0.8l-0.8-33l6.1,1.1L385.6,307.2z"/>
		<path fill="#FFFFFF" d="M400,279.2l12.5,22l-0.8-22.3l5.3,0.8l1.1,32.6l-5.7-0.8l-14.8-26.1l0.8,23.9l-5.3-0.8l-0.8-28.8
			c0-2.3,1.1-4.2,3.4-3.8C397.7,275.8,399.2,277.3,400,279.2z"/>
		<path fill="#FFFFFF" d="M431.4,284.1c0.4-1.5,2.3-2.7,4.2-2.3c1.9,0.4,3.4,1.9,4.2,3.4l11.7,31.8l-6.4-1.1l-3-8L430,306l-2.3,7.2
			l-6.1-0.8L431.4,284.1z M431.8,301.1l8.3,1.1l-4.5-12.9L431.8,301.1z"/>
		<path fill="#FFFFFF" d="M461.7,289l12.9,21.6l-0.8-22l5.3,0.8l1.1,32.2l-5.7-0.8L459.3,295l0.8,23.5l-5.3-0.8l-1.1-28.4
			c0-2.3,1.1-4.2,3.4-3.8C459.1,286,460.6,287.1,461.7,289z"/>
		<path fill="#FFFFFF" d="M507.2,295.1l0.4,5.7h-0.8c-1.9-1.5-4.9-2.7-7.6-3c-2.7-0.4-4.9,0-6.4,1.9s-2.3,4.9-1.9,7.6
			c0,2.7,0.8,6.1,2.7,8.3c1.9,2.3,4.2,3.4,6.8,3.8c2.3,0.4,5.3,0,7.2-0.8h0.8l0.4,5.7c-2.7,0.8-5.3,0.8-8,0.4
			c-3.8-0.8-7.6-2.3-10.6-5.7c-3.4-3.8-5.3-8.7-5.3-13.6c0-4.2,0.8-8,3.4-11c2.7-3,6.4-3.8,11-3
			C502.3,292.8,504.5,293.6,507.2,295.1z"/>
		<path fill="#FFFFFF" d="M518.9,327.7l-6.1-0.8l-1.1-32.2l6.1,1.1L518.9,327.7z"/>
		<path fill="#FFFFFF" d="M531.8,300.4c0.4-1.5,2.3-2.3,4.2-2.3c1.9,0.4,3.4,1.5,4.2,3.4l12.1,31.1l-6.4-1.1l-3-8l-12.1-1.9
			l-2.3,7.2l-6.1-0.8L531.8,300.4z M532.2,317l8.3,1.1l-4.5-12.5L532.2,317z"/>
		<path fill="#FFFFFF" d="M553.4,301.5l6.1,1.1l1.1,24.6c0,0.8,0.8,1.5,1.5,1.5l10.6,1.5l0.4,5.7l-11.7-1.9
			c-3.4-0.4-6.1-3.8-6.4-7.2L553.4,301.5z"/>
		<path fill="#FFFFFF" d="M599.2,308c8.7,1.5,15.2,8.7,15.5,18.6c0.4,9.8-5.3,15.2-14,14c-8.7-1.1-14.8-8.7-15.5-18.6
			C584.8,312.1,590.5,306.8,599.2,308z M600.4,335.2c5.3,0.8,8.3-2.7,8-9.5c-0.4-6.1-3.8-11.4-9.1-12.1c-5.3-0.8-8.3,2.7-8,9.5
			C591.7,329.5,595.1,334.5,600.4,335.2z"/>
		<path fill="#FFFFFF" d="M636.7,314.8l5.7,0.8l-8.3,27.3c-0.4,1.5-1.9,2.7-3.8,2.3c-1.9-0.4-3.4-1.5-4.2-3.4l-11.4-30.3l6.4,1.1
			l9.1,25L636.7,314.8z"/>
		<path fill="#FFFFFF" d="M645.1,322c0-3.4,2.3-5.7,5.7-4.9l15.5,2.3l0.4,5.3l-14-2.3c-0.8,0-1.5,0.4-1.5,1.1l0.4,5.3l11.4,1.9
			l0.4,5.3l-11.4-1.9l0.4,8.3l15.5,2.3l0.4,5.3l-21.6-3.4L645.1,322z"/>
		<path fill="#FFFFFF" d="M696.2,354.5l-7.2-1.1l-8.3-12.5l-3.8-0.8l0.8,11.4l-6.1-0.8l-1.5-25c0-3.4,2.3-5.7,5.7-4.9l4.2,0.8
			c2.7,0.4,4.9,0.8,7.6,2.3c3.4,1.9,4.9,6.1,5.3,9.5c0,3.4-0.8,6.1-3.8,7.6c-0.8,0.4-1.1,0.4-1.9,0.8L696.2,354.5z M676.5,335.2
			l4.5,0.8c2.7,0.4,5.7-0.4,5.3-3.8s-1.9-4.9-6.4-5.7l-3-0.4c-0.8,0-1.5,0.4-1.1,1.1L676.5,335.2z"/>
		<path fill="#FFFFFF" d="M715.9,326.9l5.7,0.8l-8.3,26.9c-0.4,1.5-1.9,2.7-3.8,2.3c-1.9-0.4-3.4-1.5-4.2-3.4l-11.7-29.9l6.4,1.1
			l9.1,24.6L715.9,326.9z"/>
		<path fill="#FFFFFF" d="M733,360.2l-6.1-0.8l-1.9-30.7l6.1,0.8L733,360.2z"/>
		<path fill="#FFFFFF" d="M738.6,336.4c-0.4-3.4,2.3-5.7,5.7-4.9l15.5,2.3l0.4,5.3l-14-2.3c-0.8,0-1.5,0.4-1.5,1.1l0.4,5.3l11.4,1.9
			l0.4,4.9l-11.4-1.9l0.4,8.3l15.5,2.3l0.4,5.3l-21.6-3L738.6,336.4z"/>
		<path fill="#FFFFFF" d="M789.8,359.5l3.8-20.1l5.7,0.8l-5.3,26.5c-0.4,1.5-1.9,2.7-3.8,2.3c-1.9-0.4-3.4-1.9-4.2-3.8l-5.7-18.2
			l-3,17c-0.4,1.5-1.5,2.7-3.4,2.3c-1.9-0.4-3.8-1.9-4.2-3.8l-9.1-28.8l6.1,0.8l6.8,21.6l3.8-20.1l6.1,0.8L789.8,359.5z"/>
	</g>
</g>
</svg>
