<?xml version="1.0" encoding="utf-8"?>
<!-- Generator: Adobe Illustrator 17.1.0, SVG Export Plug-In . SVG Version: 6.00 Build 0)  -->
<!DOCTYPE svg PUBLIC "-//W3C//DTD SVG 1.1//EN" "http://www.w3.org/Graphics/SVG/1.1/DTD/svg11.dtd">
<svg version="1.1" id="Layer_1" xmlns="http://www.w3.org/2000/svg" xmlns:xlink="http://www.w3.org/1999/xlink" x="0px" y="0px"
	 viewBox="0 0 247 169" enable-background="new 0 0 247 169" xml:space="preserve">
<circle cx="123.1" cy="70.3" r="70"/>
<radialGradient id="SVGID_1_" cx="589.6726" cy="-4196.2104" r="17.9248" gradientTransform="matrix(5.5805 4.319210e-02 -8.021837e-03 0.3446 -3201.2007 1583.0078)" gradientUnits="userSpaceOnUse">
	<stop  offset="0" style="stop-color:#636363"/>
	<stop  offset="1" style="stop-color:#FFFFFF;stop-opacity:0"/>
</radialGradient>
<path opacity="0.4" fill="url(#SVGID_1_)" d="M246.7,162.5c0,3.8-55.3,7-123.5,7c-68.2,0-123.5-3.1-123.5-7c0-3.8,55.3-7,123.5-7
	C191.3,155.5,246.7,158.6,246.7,162.5z"/>
<g>
	<g>
		<path fill="#FFFFFF" d="M117.5,80.1v-2.5c-1.8-0.1-3.5-0.6-4.5-1.1l0.8-3.1c1.1,0.6,2.7,1.2,4.4,1.2c1.5,0,2.6-0.6,2.6-1.6
			c0-1-0.8-1.6-2.8-2.3c-2.8-1-4.8-2.3-4.8-4.9c0-2.3,1.6-4.2,4.5-4.7v-2.5h2.6v2.3c1.8,0.1,3,0.5,3.9,0.9l-0.8,3
			c-0.7-0.3-1.9-0.9-3.8-0.9c-1.7,0-2.3,0.7-2.3,1.5c0,0.9,0.9,1.4,3.2,2.3c3.2,1.1,4.4,2.6,4.4,5c0,2.4-1.7,4.4-4.7,4.9v2.7H117.5z
			"/>
	</g>
	<path fill="#00AEEF" d="M143.1,73.1c-1.3-1.5-1.3-4.1,0-5.6l3.8-4.4c1.3-1.5,0.8-3.2-1.2-3.7l-5.6-1.3c-2-0.5-3.5-2.5-3.3-4.5
		l0.5-5.8c0.2-2-1.2-3-3.1-2.3l-5.4,2.2c-1.9,0.8-4.3,0-5.3-1.7l-3-5c-1.1-1.7-2.8-1.7-3.8,0l-3,5c-1.1,1.7-3.5,2.5-5.3,1.7
		l-5.4-2.2c-1.9-0.8-3.3,0.2-3.1,2.3l0.5,5.8c0.2,2-1.3,4.1-3.3,4.5l-5.6,1.3c-2,0.5-2.5,2.1-1.2,3.7l3.8,4.4c1.3,1.5,1.3,4.1,0,5.6
		l-3.8,4.4c-1.3,1.5-0.8,3.2,1.2,3.7l5.6,1.3c2,0.5,3.5,2.5,3.3,4.5l-0.5,5.8c-0.2,2,1.2,3,3.1,2.3l5.4-2.2c1.9-0.8,4.3,0,5.3,1.7
		l3,5c1.1,1.7,2.8,1.7,3.8,0l3-5c1.1-1.7,3.5-2.5,5.3-1.7l5.4,2.2c1.9,0.8,3.3-0.2,3.1-2.3l-0.5-5.8c-0.2-2,1.3-4.1,3.3-4.5l5.6-1.3
		c2-0.5,2.5-2.1,1.2-3.7L143.1,73.1z M118.5,86c-8.7,0-15.7-7-15.7-15.7c0-8.7,7-15.7,15.7-15.7c8.7,0,15.7,7,15.7,15.7
		C134.2,79,127.2,86,118.5,86z"/>
	<path fill="#00AEEF" d="M176.4,63.9c-0.6-0.7-0.6-1.9,0-2.7l1.8-2.1c0.6-0.7,0.4-1.5-0.6-1.7l-2.7-0.6c-0.9-0.2-1.6-1.2-1.6-2.2
		l0.2-2.7c0.1-1-0.6-1.4-1.5-1.1l-2.5,1.1c-0.9,0.4-2,0-2.5-0.8l-1.4-2.4c-0.5-0.8-1.3-0.8-1.8,0l-1.4,2.4c-0.5,0.8-1.6,1.2-2.5,0.8
		l-2.5-1.1c-0.9-0.4-1.6,0.1-1.5,1.1l0.2,2.7c0.1,1-0.6,1.9-1.6,2.2l-2.7,0.6c-0.9,0.2-1.2,1-0.6,1.7l1.8,2.1c0.6,0.7,0.6,1.9,0,2.7
		l-1.8,2.1c-0.6,0.7-0.4,1.5,0.6,1.7l2.7,0.6c0.9,0.2,1.6,1.2,1.6,2.2l-0.2,2.8c-0.1,1,0.6,1.4,1.5,1.1l2.5-1.1c0.9-0.4,2,0,2.5,0.8
		l1.4,2.4c0.5,0.8,1.3,0.8,1.8,0L167,74c0.5-0.8,1.6-1.2,2.5-0.8l2.5,1.1c0.9,0.4,1.6-0.1,1.5-1.1l-0.2-2.8c-0.1-1,0.6-1.9,1.6-2.2
		l2.7-0.6c0.9-0.2,1.2-1,0.6-1.7L176.4,63.9z M164.7,68.1c-3.1,0-5.6-2.5-5.6-5.6c0-3.1,2.5-5.6,5.6-5.6c3.1,0,5.6,2.5,5.6,5.6
		C170.3,65.6,167.8,68.1,164.7,68.1z"/>
	<path fill="#00AEEF" d="M93,48.2c-0.5-0.5-0.5-1.4,0-2l1.3-1.5c0.5-0.5,0.3-1.1-0.4-1.3l-2-0.5c-0.7-0.2-1.2-0.9-1.2-1.6l0.2-2
		c0.1-0.7-0.4-1.1-1.1-0.8L88,39.3c-0.7,0.3-1.5,0-1.9-0.6l-1.1-1.7c-0.4-0.6-1-0.6-1.3,0l-1.1,1.7c-0.4,0.6-1.2,0.9-1.9,0.6
		l-1.9-0.8c-0.7-0.3-1.2,0.1-1.1,0.8l0.2,2c0.1,0.7-0.5,1.4-1.2,1.6l-2,0.5c-0.7,0.2-0.9,0.7-0.4,1.3l1.3,1.5c0.5,0.5,0.5,1.4,0,2
		l-1.3,1.5c-0.5,0.5-0.3,1.1,0.4,1.3l2,0.5c0.7,0.2,1.2,0.9,1.2,1.6l-0.2,2c-0.1,0.7,0.4,1.1,1.1,0.8l1.9-0.8c0.7-0.3,1.5,0,1.9,0.6
		l1.1,1.7c0.4,0.6,1,0.6,1.3,0l1.1-1.7c0.4-0.6,1.2-0.9,1.9-0.6l1.9,0.8c0.7,0.3,1.2-0.1,1.1-0.8l-0.2-2c-0.1-0.7,0.5-1.4,1.2-1.6
		l2-0.5c0.7-0.2,0.9-0.7,0.4-1.3L93,48.2z M84.4,51.3c-2.3,0-4.1-1.8-4.1-4.1c0-2.3,1.8-4.1,4.1-4.1c2.3,0,4.1,1.8,4.1,4.1
		C88.5,49.5,86.7,51.3,84.4,51.3z"/>
	<path fill="#00AEEF" d="M170.8,96.1c-0.6-0.7-0.6-1.9,0-2.7l1.8-2.1c0.6-0.7,0.4-1.5-0.6-1.7l-2.7-0.6c-0.9-0.2-1.6-1.2-1.6-2.2
		L168,84c0.1-1-0.6-1.4-1.5-1.1L164,84c-0.9,0.4-2,0-2.5-0.8l-1.4-2.4c-0.5-0.8-1.3-0.8-1.8,0l-1.4,2.4c-0.5,0.8-1.6,1.2-2.5,0.8
		l-2.5-1.1c-0.9-0.4-1.6,0.1-1.5,1.1l0.2,2.7c0.1,1-0.6,1.9-1.6,2.2l-2.7,0.6c-0.9,0.2-1.2,1-0.6,1.7l1.8,2.1c0.6,0.7,0.6,1.9,0,2.7
		l-1.8,2.1c-0.6,0.7-0.4,1.5,0.6,1.7l2.7,0.6c0.9,0.2,1.6,1.2,1.6,2.2l-0.2,2.7c-0.1,1,0.6,1.4,1.5,1.1l2.5-1.1c0.9-0.4,2,0,2.5,0.8
		l1.4,2.4c0.5,0.8,1.3,0.8,1.8,0l1.4-2.4c0.5-0.8,1.6-1.2,2.5-0.8l2.5,1.1c0.9,0.4,1.6-0.1,1.5-1.1l-0.2-2.7c-0.1-1,0.6-1.9,1.6-2.2
		l2.7-0.6c0.9-0.2,1.2-1,0.6-1.7L170.8,96.1z M159.1,100.3c-3.1,0-5.6-2.5-5.6-5.6c0-3.1,2.5-5.6,5.6-5.6c3.1,0,5.6,2.5,5.6,5.6
		C164.7,97.8,162.2,100.3,159.1,100.3z"/>
</g>
</svg>
