<?xml version="1.0" encoding="utf-8"?>
<!-- Generator: Adobe Illustrator 17.1.0, SVG Export Plug-In . SVG Version: 6.00 Build 0)  -->
<!DOCTYPE svg PUBLIC "-//W3C//DTD SVG 1.1//EN" "http://www.w3.org/Graphics/SVG/1.1/DTD/svg11.dtd">
<svg version="1.1" id="Layer_1" xmlns="http://www.w3.org/2000/svg" xmlns:xlink="http://www.w3.org/1999/xlink" x="0px" y="0px"
	 viewBox="0 0 247 169" enable-background="new 0 0 247 169" xml:space="preserve">
<circle cx="123.7" cy="69.4" r="70"/>
<radialGradient id="SVGID_1_" cx="589.7718" cy="-4196.4761" r="17.9248" gradientTransform="matrix(5.5805 4.319210e-02 -8.021837e-03 0.3446 -3201.2029 1582.2413)" gradientUnits="userSpaceOnUse">
	<stop  offset="0" style="stop-color:#636363"/>
	<stop  offset="1" style="stop-color:#FFFFFF;stop-opacity:0"/>
</radialGradient>
<path opacity="0.4" fill="url(#SVGID_1_)" d="M247.2,161.6c0,3.8-55.3,7-123.5,7c-68.2,0-123.5-3.1-123.5-7c0-3.8,55.3-7,123.5-7
	C191.9,154.6,247.2,157.8,247.2,161.6z"/>
<g>
	<polygon fill="#00AEEF" points="101.3,19.7 109.5,18.2 121.6,27.2 113.3,39 104.4,40.2 111.6,28.8 	"/>
	<polygon fill="#00AEEF" points="174.2,72.7 171.6,80.7 157.9,87 151.5,74 154.7,65.6 161.2,77.4 	"/>
	<polygon fill="#00AEEF" points="90.1,108.4 85,101.8 87.4,87 101.7,88.8 106.9,96.2 93.4,95 	"/>
	<g>
		<path fill="#00AEEF" d="M82.7,63.8c0-17,13.2-30.9,29.9-31.9V25C92.1,26,75.7,43.1,75.7,63.8c0,7,1.9,13.5,5.1,19.2l6.2-3
			C84.3,75.3,82.7,69.7,82.7,63.8z"/>
		<path fill="#00AEEF" d="M144.5,35.2c14.9,8.2,20.7,26.5,13.6,41.6l6.1,3.3c8.9-18.5,1.9-41-16.3-51c-6.1-3.4-12.7-4.9-19.3-4.8
			l-0.4,6.9C133.7,31.1,139.3,32.3,144.5,35.2z"/>
		<path fill="#00AEEF" d="M137.9,104.6c-15,7.8-33.5,2.5-42.1-11.8L89.6,96c10.4,17.7,33.1,24.3,51.5,14.8
			c6.2-3.2,11.1-7.9,14.7-13.4l-5.5-4.2C147.3,97.9,143.1,101.9,137.9,104.6z"/>
		<path fill="#FFFFFF" d="M112.1,54.6h24.6c3.2,0,5.8,2.6,5.8,5.8v11.7c0,3.2-2.6,5.8-5.8,5.8h-13.8l-11.1,8.8l3.5-8.8h-3.2
			c-3.2,0-5.8-2.6-5.8-5.8V60.4C106.3,57.2,108.9,54.6,112.1,54.6z"/>
	</g>
</g>
<polyline fill="none" stroke="#000000" stroke-width="2" stroke-miterlimit="10" points="143.3,55.7 124.4,65 105.9,56.7 "/>
</svg>
