<?xml version="1.0" encoding="utf-8"?>
<!-- Generator: Adobe Illustrator 17.1.0, SVG Export Plug-In . SVG Version: 6.00 Build 0)  -->
<!DOCTYPE svg PUBLIC "-//W3C//DTD SVG 1.1//EN" "http://www.w3.org/Graphics/SVG/1.1/DTD/svg11.dtd">
<svg version="1.1" id="Layer_1" xmlns="http://www.w3.org/2000/svg" xmlns:xlink="http://www.w3.org/1999/xlink" x="0px" y="0px"
	 viewBox="0 0 247 169" enable-background="new 0 0 247 169" xml:space="preserve">
<g>
	<circle cx="123.1" cy="69.3" r="70"/>
	<path fill-rule="evenodd" clip-rule="evenodd" fill="#FFFFFF" d="M110.4,35.8c1.7-1.5,1.9-4.1,0.4-5.9c-1.5-1.7-4.1-1.9-5.9-0.4
		c-6,5.3-12.4,13.5-14.9,24.1c-1.9,8-1.6,17.2,2.8,27.4c0.9,2.1,3.4,3.1,5.5,2.2c0.2-0.1,0.4-0.2,0.6-0.3c0.8,3.1,1.8,6.3,3.3,9.5
		c0.9,2.1,3.4,3.1,5.5,2.1c2.1-0.9,3.1-3.4,2.1-5.5c-4.3-9.7-4.8-18.2-3.2-25.3c2.1-9.1,7.8-16.3,13.7-20.9c1.8-1.4,2.1-4,0.7-5.8
		c-1.4-1.8-4-2.1-5.8-0.7C107.9,42,101,50.7,98.4,61.9c-0.4,1.8-0.7,3.7-0.9,5.6c-0.6-4.3-0.3-8.3,0.6-12
		C100.1,46.9,105.4,40.2,110.4,35.8L110.4,35.8z M125.5,53.2c-2,1.8-3.6,3.6-4.8,5.5c-1.9,3.1-2.7,6.3-2.4,9.5
		c0.3,3.2,1.8,6.4,4.4,9.4c1.8,2.1,4.1,4,7,5.8c1.8,1.1,2.3,3.4,1.2,5.2c-1.1,1.8-3.4,2.3-5.2,1.2c-3.5-2.2-6.4-4.6-8.7-7.2
		c-3.7-4.2-5.7-8.8-6.2-13.6c-0.5-4.8,0.7-9.7,3.5-14.2c1.6-2.5,3.6-5,6.2-7.2c1.6-1.4,4-1.2,5.3,0.4
		C127.2,49.4,127.1,51.8,125.5,53.2z"/>
	<g>
		<path fill-rule="evenodd" clip-rule="evenodd" fill="#00AEEF" d="M146.6,28.5c5.4,6.3,7,18,9.7,22.4c2.4,3.9,5.7,6.9,9.6,10.8
			c3.6,3.7-4.1,6.1-4.6,7.9c-1.4,4.6,5.5,5.5-0.8,9.3c1.2,1.1,1.8,1.1,2.3,2c1.5,2.8-2.6,3-2.8,4.9c-0.1,1.4,6.2,9.1-2.8,10.8
			c-4.4,0.8-10.4-0.9-12.9,2.2c-3.1,3.8-5.3,8.2-6.9,15.6h-8.9c1.3-6.4,6.1-16,9.7-20c4.8-5.3,15-1.5,16.2-4.1
			c1.6-3.3-4.6-6.2-0.5-8.9c2.1-1.7-0.2-2.1-1.5-3.4c0.7-0.4,2.6-0.8,2.5-2.9c-0.1-1.7-2.8-3.4-2.1-6c0.4-1.6,5.8-4.2,2.8-7.4
			c-3.1-3.4-4.5-5.7-6.7-8.9c-3-4.5-2.1-11.7-8.5-19.4c-10.9-13-28-11.6-39.7-2.8c-4.9,3.4-9.5-3-5-6.4
			C110.4,13.7,132.4,12,146.6,28.5z"/>
		<path fill-rule="evenodd" clip-rule="evenodd" fill="#00AEEF" d="M93.8,114.4c3.7-8.4,8-17.1,1.8-23.1
			c-15.1-14.7-22.5-36.1-9.4-56.9c3.9-6.1,12.7-4.5,8.1,3.4c-15,25.9,4.6,39.9,8.3,38.6c5.9-2.1,0.7-21.9-6.6-31.8
			c4.1-1.5,12.1-0.7,15.7,8.4c4.9,12.5,6,17.7,15.5,26.4c11.9,10.9-2.5,22.1-3.4,35.1H93.8z"/>
	</g>
</g>
<radialGradient id="SVGID_1_" cx="589.6726" cy="-4196.5" r="17.9248" gradientTransform="matrix(5.5805 4.319210e-02 -8.021837e-03 0.3446 -3201.2031 1582.176)" gradientUnits="userSpaceOnUse">
	<stop  offset="0" style="stop-color:#636363"/>
	<stop  offset="1" style="stop-color:#FFFFFF;stop-opacity:0"/>
</radialGradient>
<path opacity="0.4" fill="url(#SVGID_1_)" d="M246.7,161.5c0,3.8-55.3,7-123.5,7c-68.2,0-123.5-3.1-123.5-7c0-3.8,55.3-7,123.5-7
	C191.3,154.6,246.7,157.7,246.7,161.5z"/>
</svg>
