<?xml version="1.0" encoding="utf-8"?>
<!-- Generator: Adobe Illustrator 17.1.0, SVG Export Plug-In . SVG Version: 6.00 Build 0)  -->
<!DOCTYPE svg PUBLIC "-//W3C//DTD SVG 1.1//EN" "http://www.w3.org/Graphics/SVG/1.1/DTD/svg11.dtd">
<svg version="1.1" id="Layer_1" xmlns="http://www.w3.org/2000/svg" xmlns:xlink="http://www.w3.org/1999/xlink" x="0px" y="0px"
	 viewBox="0 0 247 169" enable-background="new 0 0 247 169" xml:space="preserve">
<circle cx="123.1" cy="69.3" r="70"/>
<radialGradient id="SVGID_1_" cx="589.6726" cy="-4196.5" r="17.9248" gradientTransform="matrix(5.5805 4.319210e-02 -8.021837e-03 0.3446 -3201.2031 1582.176)" gradientUnits="userSpaceOnUse">
	<stop  offset="0" style="stop-color:#636363"/>
	<stop  offset="1" style="stop-color:#FFFFFF;stop-opacity:0"/>
</radialGradient>
<path opacity="0.4" fill="url(#SVGID_1_)" d="M246.7,161.5c0,3.8-55.3,7-123.5,7c-68.2,0-123.5-3.1-123.5-7c0-3.8,55.3-7,123.5-7
	C191.3,154.6,246.7,157.7,246.7,161.5z"/>
<rect x="156" y="83" fill="#00AEEF" width="3.6" height="19.9"/>
<rect x="147.3" y="83" fill="#00AEEF" width="5.3" height="19.9"/>
<g>
	<path fill="#FFFFFF" d="M87.1,62.2h-3.6c-0.9,0-1.6-0.7-1.6-1.6V40.7c0-0.9,0.7-1.6,1.6-1.6h3.6c0.9,0,1.6,0.7,1.6,1.6v19.9
		C88.6,61.5,87.9,62.2,87.1,62.2z"/>
	<path fill="#FFFFFF" d="M97.9,62.2h-5.3c-0.9,0-1.6-0.7-1.6-1.6V40.7c0-0.9,0.7-1.6,1.6-1.6h5.3c0.9,0,1.6,0.7,1.6,1.6v19.9
		C99.4,61.5,98.7,62.2,97.9,62.2z M94.1,59h2.2V42.3h-2.2V59z"/>
	<path fill="#FFFFFF" d="M165.8,49.2l-16.7-16.7c-0.6-0.6-1.5-0.8-2.3-0.5c-0.8,0.3-1.3,1.1-1.3,1.9v4.6h-41.1
		c-1.2,0-2.1,0.9-2.1,2.1v19.9c0,1.2,0.9,2.1,2.1,2.1h5.8c0.9-1.6,2.1-3,3.5-4.2h-7.3V42.8h41.1c1.2,0,2.1-0.9,2.1-2.1v-1.6
		l11.6,11.6l-11.6,11.6v-1.6c0-1.2-0.9-2.1-2.1-2.1h-12.2c1.4,1.2,2.6,2.6,3.5,4.2h6.6v4.6c0,0.9,0.5,1.6,1.3,1.9
		c0.3,0.1,0.5,0.2,0.8,0.2c0.5,0,1.1-0.2,1.5-0.6l16.7-16.7C166.6,51.3,166.6,50,165.8,49.2z"/>
	<path fill="#00AEEF" d="M136.3,83c-3,3-7.2,4.9-11.8,4.9c-4.6,0-8.7-1.9-11.8-4.9h-11.7v-6.7L84.5,92.9l16.7,16.7v-6.7h43.2V83
		H136.3z"/>
	<path fill="#FFFFFF" d="M123,83.6v-2.9c-2-0.1-4-0.6-5.2-1.3l0.9-3.6c1.3,0.7,3.1,1.3,5,1.3c1.7,0,2.9-0.7,2.9-1.9
		c0-1.2-1-1.9-3.2-2.6c-3.3-1.1-5.5-2.6-5.5-5.6c0-2.7,1.9-4.8,5.1-5.4v-2.9h3v2.7c2,0.1,3.4,0.5,4.4,1l-0.9,3.4
		c-0.8-0.3-2.2-1-4.4-1c-2,0-2.6,0.9-2.6,1.7c0,1,1.1,1.6,3.6,2.6c3.6,1.3,5.1,2.9,5.1,5.7c0,2.7-1.9,5-5.4,5.6v3.1H123z"/>
</g>
</svg>
