<?xml version="1.0" encoding="utf-8"?>
<!-- Generator: Adobe Illustrator 17.1.0, SVG Export Plug-In . SVG Version: 6.00 Build 0)  -->
<!DOCTYPE svg PUBLIC "-//W3C//DTD SVG 1.1//EN" "http://www.w3.org/Graphics/SVG/1.1/DTD/svg11.dtd">
<svg version="1.1" id="Layer_1" xmlns="http://www.w3.org/2000/svg" xmlns:xlink="http://www.w3.org/1999/xlink" x="0px" y="0px"
	 viewBox="0 0 247 169" enable-background="new 0 0 247 169" xml:space="preserve">
<circle cx="123.1" cy="69.8" r="70"/>
<radialGradient id="SVGID_1_" cx="589.6726" cy="-4196.3516" r="17.9248" gradientTransform="matrix(5.5805 4.319210e-02 -8.021837e-03 0.3446 -3201.2019 1582.6031)" gradientUnits="userSpaceOnUse">
	<stop  offset="0" style="stop-color:#636363"/>
	<stop  offset="1" style="stop-color:#FFFFFF;stop-opacity:0"/>
</radialGradient>
<path opacity="0.4" fill="url(#SVGID_1_)" d="M246.7,162c0,3.8-55.3,7-123.5,7c-68.2,0-123.5-3.1-123.5-7c0-3.8,55.3-7,123.5-7
	C191.3,155,246.7,158.2,246.7,162z"/>
<g>
	<g>
		<path fill-rule="evenodd" clip-rule="evenodd" fill="#FFFFFF" d="M85.8,48.9L82,50.5c-20.1,8.3-20.6,30.2,0.4,39.7l9.5,4.3
			c-2.9-3.4-2.7-9.7-4-11.1c-2.2-2.4-9.1,1.1-9.9-3.7c-0.2-1.3,1.3-1.9,1.2-3.2c0-0.5-1-0.3-1.3-0.7c-0.2-0.3-0.5-1.1-0.2-1.5
			c0.3-0.5,0.6-0.5,1.3-1c-0.5-0.3-1.6-0.4-1.4-1.6c-0.1-1,1.4-1.6,0.9-3.1c-0.4-1.2-2.7-1-3.1-1.8c-0.3-0.7-0.5-1.3,0-1.8
			c2.1-2,4.3-4,5.8-5.9c0.6-0.8-0.1-1.8,0.3-2.6c0.7-1.3,1-1.5,1.8-2.7C84,52.8,84.5,50.8,85.8,48.9z"/>
		<path fill-rule="evenodd" clip-rule="evenodd" fill="#00AEEF" d="M107.4,73.1l28.9-12c0.8-0.3,1.4-1,1.7-1.7
			c0.3-0.8,0.3-1.6,0-2.5l0,0c-0.3-0.8-1-1.4-1.7-1.7c-0.8-0.3-1.6-0.3-2.5,0l-28.9,12l-0.6-1.5l28.9-12l5.3-2.2
			c0.8-0.3,1.4-1,1.7-1.7c0.3-0.8,0.3-1.6,0-2.5l0,0c-0.3-0.8-1-1.4-1.7-1.7c-0.8-0.3-1.6-0.3-2.5,0l-5.3,2.2l-28.9,12l-0.6-1.5
			l28.9-12c0.8-0.3,1.4-1,1.7-1.7c0.3-0.8,0.3-1.6,0-2.5l0,0c-0.3-0.8-1-1.4-1.7-1.7c-0.8-0.3-1.6-0.3-2.5,0l-6,2.5l-22.9,9.5
			l-0.6-1.5l20.3-8.4c0.8-0.3,1.4-1,1.7-1.7c0.3-0.8,0.3-1.6,0-2.5l0,0c-0.3-0.8-1-1.4-1.7-1.7c-0.8-0.3-1.6-0.3-2.5,0L102.5,42
			l-6.9,2.8l-1.3,0.5l0,0c-6.5,2.7-6.3,5.1-8.5,8.6c-0.7,1.1-1.1,1.4-1.8,2.6c-0.5,0.8,0.3,1.8-0.3,2.6c-1.5,1.8-3.3,3.5-5.4,5.5
			c-2,1.8,2.2,2.4,2.5,3.3c0.9,2-0.9,2.6-0.8,3.5c-0.2,1.2,0.9,1.3,1.4,1.6c-0.7,0.6-1,0.5-1.3,1c-0.2,0.4,0,1.1,0.2,1.4
			c0.3,0.4,1.3,0.2,1.3,0.7c0,1.2-1.4,1.9-1.2,3.1c0.1,2.5,6.8,0,8.9,2.5c1.7,2.1,0.8,12.1,7.4,15.1l0,0l9,4.1
			c2.2-6.8-2.5-10.9-7.2-12.8C83.7,81.9,102.3,75.2,107.4,73.1z"/>
	</g>
	<g>
		<path fill-rule="evenodd" clip-rule="evenodd" fill="#FFFFFF" d="M158,54.5c-0.7,4.2-10.9,7.9-14.4,9.4l-28.9,12
			c-0.8,0.3-1.4,1-1.7,1.7c-0.3,0.8-0.3,1.6,0,2.5l0,0c0.3,0.8,1,1.4,1.7,1.7c0.8,0.3,1.6,0.3,2.5,0l28.9-12l0.6,1.5l-28.9,12
			l-5.3,2.2c-0.8,0.3-1.4,1-1.7,1.7c-0.3,0.8-0.3,1.6,0,2.5l0,0c0.3,0.8,1,1.4,1.7,1.7c0.8,0.3,1.6,0.3,2.5,0l5.3-2.2l28.9-12
			l0.6,1.5l-28.9,12c-0.8,0.3-1.4,1-1.7,1.7c-0.3,0.8-0.3,1.6,0,2.5l0,0c0.3,0.8,1,1.4,1.7,1.7c0.8,0.3,1.6,0.3,2.5,0l6-2.5
			l22.9-9.5l0.6,1.5l-20.3,8.4c-0.8,0.3-1.4,1-1.7,1.7c-0.3,0.8-0.3,1.6,0,2.5l0,0c0.3,0.8,1,1.4,1.7,1.7c0.8,0.3,1.6,0.3,2.5,0
			l13.4-5.6l5.1-2.1c0.5-3.8,2-7.3,2.8-8.3c2-2.4,8.6,0.1,8.7-2.4c0.2-1.2-1.2-1.8-1.2-3c0-0.5,1-0.3,1.3-0.7c0.2-0.3,0.5-1,0.2-1.4
			c-0.3-0.5-0.6-0.4-1.2-1c0.5-0.2,1.6-0.4,1.3-1.5c0.1-0.9-1.6-1.5-0.7-3.4c0.3-0.9,4.4-1.5,2.5-3.2c-2.1-1.9-3.8-3.5-5.3-5.3
			c-0.6-0.7,0.1-1.7-0.3-2.5c-0.7-1.2-1-1.4-1.7-2.5C159.2,56.4,158.6,55.4,158,54.5z"/>
		<path fill-rule="evenodd" clip-rule="evenodd" fill="#00AEEF" d="M165.2,88.1l3.8-1.6c20.1-8.3,20.6-30.2-0.4-39.7l-9.5-4.3
			l-5-2.2h0l-2.1-0.9l-7-3.2c-2.1,6.5,2.1,10.6,6.7,12.6c6.1,2.4,8.4,5.1,10.6,8.7c0.7,1.1,1,1.4,1.7,2.6c0.4,0.8-0.3,1.8,0.3,2.6
			c1.5,1.8,3.6,3.8,5.6,5.8c0.5,0.5,0.3,1.1,0,1.8c-0.3,0.7-2.6,0.6-3,1.7c-0.5,1.5,1,2.1,0.9,3c0.2,1.2-0.9,1.3-1.3,1.6
			c0.7,0.6,0.9,0.5,1.2,1c0.2,0.4,0,1.1-0.2,1.4c-0.3,0.4-1.3,0.2-1.3,0.7c0,1.2,1.4,1.9,1.2,3.1c-0.8,4.7-7.6,1.3-9.7,3.6
			c-0.7,0.8-1.8,3.1-2.5,5.8l1.1-0.5l0,0l0,0L165.2,88.1z"/>
	</g>
</g>
</svg>
